<svg width="45" height="45" viewBox="0 0 45 45" fill="none" xmlns="http://www.w3.org/2000/svg">
<path d="M22.4 -9.91821e-05C10.0185 -9.91821e-05 0 10.0201 0 22.3999C0 34.7815 10.0204 44.7999 22.4 44.7999C34.7814 44.7999 44.8 34.7796 44.8 22.3999C44.8 10.0183 34.7796 -9.91821e-05 22.4 -9.91821e-05ZM18.4471 28.9881H15.8118V25.0352H13.1765V28.9881H10.5412V19.7646C10.5412 17.585 12.3146 15.8117 14.4941 15.8117C16.6739 15.8117 18.4471 17.585 18.4471 19.7646V28.9881ZM27.6706 28.9881H21.0824V15.8117H23.7176V26.3528H27.6706V28.9881ZM36.8941 28.9881H30.3059V15.8117H32.9412V26.3528H36.8941V28.9881Z" fill="#00BF40"/>
<path d="M14.494 18.4467C13.7676 18.4467 13.1764 19.0379 13.1764 19.7643V22.3996H15.8117V19.7643C15.8117 19.0379 15.2206 18.4467 14.494 18.4467Z" fill="#00BF40"/>
</svg>
