<svg width="32" height="32" viewBox="0 0 32 32" fill="none" xmlns="http://www.w3.org/2000/svg">
<g clip-path="url(#clip0_11_2324)">
<path d="M16 21.5153L21.334 26.0014L25.08 26.7577V16.2731L21.3336 16.6676L16 21.5153Z" fill="#A079FF"/>
<path d="M16 21.5153L11.0677 17.3342L6.92004 16.273V26.7577L11.3331 26.0014L16 21.5153Z" fill="#B799FF"/>
<path d="M25.08 16.273L16 11.0308L15.3334 18.6677L16 21.5153L25.08 16.273Z" fill="#7F66FF"/>
<path d="M25.08 26.7577L16 21.5153L15.3334 24.0013L16 31.9999L25.08 26.7577Z" fill="#7F66FF"/>
<path d="M16 21.5153V11.0308V11.0307L6.92004 16.273L16 21.5153Z" fill="#A079FF"/>
<path d="M16 21.5153L6.92004 26.7577L16 32V31.9999V21.5153Z" fill="#A079FF"/>
<path d="M20.1301 19.1309L16 16.7464L15.3334 22.0012L16 26.2842L20.1301 23.8998V19.1309Z" fill="#C5AEFF"/>
<path d="M16 16.7464L11.87 19.1309V23.8998L16 26.2843V26.2842V16.7464Z" fill="#DACAFF"/>
<path d="M26.3689 0H24.4938C24.4938 4.6835 20.6835 8.49382 16 8.49382L15.3333 9.3338L16 10.3689C21.7174 10.3689 26.3689 5.71743 26.3689 0Z" fill="#FDB902"/>
<path d="M16 8.49382C11.3165 8.49382 7.5062 4.6835 7.5062 0H5.6311C5.6311 5.71743 10.2826 10.3689 16 10.3689V8.49382Z" fill="#FDCB02"/>
<path d="M19.1925 9.43137C19.1925 7.66822 17.7632 6.23889 16 6.23889L15.4921 9.55763L16 12.6239C17.7632 12.6239 19.1925 11.1945 19.1925 9.43137Z" fill="#FFDC9E"/>
<path d="M16 6.23889C14.2368 6.23889 12.8075 7.66822 12.8075 9.43137C12.8075 11.1945 14.2368 12.6239 16 12.6239V6.23889Z" fill="#FFEBBA"/>
</g>
<defs>
<clipPath id="clip0_11_2324">
<rect width="32" height="32" fill="white"/>
</clipPath>
</defs>
</svg>
