<svg width="30" height="30" viewBox="0 0 30 30" fill="none" xmlns="http://www.w3.org/2000/svg">
<g clip-path="url(#clip0_11_2348)">
<path d="M30 15.8203V30H1.81641V15.8203L4.61139 14.0625H27.9551L30 15.8203Z" fill="#979FEF"/>
<path d="M30 15.8203V30H15.8789V14.0625H27.9551L30 15.8203Z" fill="#737EE6"/>
<path d="M19.7443 1.93441L28.9036 0L30 5.15818L25.9989 5.99619L21.1522 4.33078L19.7443 1.93441Z" fill="#2C3B73"/>
<path d="M26.004 5.99408L19.1134 7.45312L15.879 6.3457L14.2794 5.80078L12.873 3.39258L15.879 2.75976L19.7462 1.93353L26.004 5.99408Z" fill="#BBDCFF"/>
<path d="M19.1133 7.45312L15.8789 6.3457V2.75976L19.7461 1.93353L26.0039 5.99408L19.1133 7.45312Z" fill="#9ABADB"/>
<path d="M15.8789 20.7129L12.3633 19.0605V26.7598L15.8789 25.1074L20.5898 22.9102L15.8789 20.7129Z" fill="#E0F4FF"/>
<path d="M20.6373 15.8203H30V10.5469H25.9108L21.5162 13.1836L20.6373 15.8203Z" fill="#BBDCFF"/>
<path d="M25.916 10.5469L20.6426 15.8203H13.6113L14.4902 13.1836L15.8788 12.3574L18.8848 10.5469H25.916Z" fill="#61729B"/>
<path d="M15.8789 20.7129L20.5898 22.9102L15.8789 25.1074V20.7129Z" fill="#BBDCFF"/>
<path d="M25.9161 10.5469L20.6426 15.8203H15.8789V12.3574L18.8848 10.5469H25.9161Z" fill="#47568C"/>
<path d="M19.1133 7.45312L15.8789 8.13867L12.2402 8.91211L7.54688 7.36523L5.98242 4.85156L12.873 3.39258L15.8789 5.34369L19.1133 7.45312Z" fill="#47568C"/>
<path d="M19.1133 7.45312L15.8789 8.13867V5.34369L19.1133 7.45312Z" fill="#2C3B73"/>
<path d="M2.431 11.0057L1.33459 5.84754L5.98905 4.85818L12.2437 8.91996L2.431 11.0057Z" fill="#BBDCFF"/>
<path d="M18.8848 10.5469L15.8788 13.5527L13.6113 15.8203H6.58008L7.58203 13.0429L11.8535 10.5469H18.8848Z" fill="#E0F4FF"/>
<path d="M18.8848 10.5469L15.8789 13.5527V10.5469H18.8848Z" fill="#BBDCFF"/>
<path d="M1.81641 10.5469V15.8203H6.57486L11.8483 10.5469H1.81641Z" fill="#61729B"/>
<path d="M2.69531 14.0625C1.24137 14.0625 0 12.8797 0 11.4258C0 9.97184 1.24137 8.78906 2.69531 8.78906C4.14926 8.78906 5.33203 9.97184 5.33203 11.4258C5.33203 12.8797 4.14926 14.0625 2.69531 14.0625Z" fill="#979FEF"/>
</g>
<defs>
<clipPath id="clip0_11_2348">
<rect width="30" height="30" fill="white"/>
</clipPath>
</defs>
</svg>
