<svg width="32" height="32" viewBox="0 0 32 32" fill="none" xmlns="http://www.w3.org/2000/svg">
<path d="M25.9585 0H16L12.25 29.8916H25.9585V0Z" fill="#707492"/>
<path d="M6.0415 0H16V29.8916H6.0415V0Z" fill="#8C8FA7"/>
<path d="M16 19.917L12.25 29.8916H21.9751V19.917H16Z" fill="#2B2845"/>
<path d="M10.0249 19.917H16V29.8916H10.0249V19.917Z" fill="#373E69"/>
<path d="M17.9917 11.9502H21.9751V15.9336H17.9917V11.9502Z" fill="#BFF5F5"/>
<path d="M10.0249 11.9502H14.0083V15.9336H10.0249V11.9502Z" fill="white"/>
<path d="M25.9585 28.0166H16L14.125 30.0083L16 32H29.9419C29.9419 29.8 28.1585 28.0166 25.9585 28.0166Z" fill="#70C18F"/>
<path d="M6.04148 28.0166C3.84148 28.0166 2.05811 29.8001 2.05811 32H16V28.0166H6.04148Z" fill="#82D97E"/>
<path d="M17.9917 3.98338H21.9751V7.96675H17.9917V3.98338Z" fill="#BFF5F5"/>
<path d="M10.0249 3.98338H14.0083V7.96675H10.0249V3.98338Z" fill="white"/>
</svg>
