<svg width="30" height="30" viewBox="0 0 30 30" fill="none" xmlns="http://www.w3.org/2000/svg">
<path d="M18.3107 13.3399C18.4427 12.8112 18.5128 12.2584 18.5128 11.6894C18.5128 7.93089 15.4551 4.87306 11.6964 4.87306H8.30357C4.54502 4.87306 1.48718 7.93089 1.48718 11.6895C1.48718 12.2586 1.55855 12.8112 1.69062 13.3399H18.3107V13.3399Z" fill="#D64344"/>
<path d="M12.0703 6.74807H10L9.375 5.73082L10 4.67777C10 3.05976 11.3117 1.74809 12.9297 1.74809H15V3.81838C15 5.43639 13.6883 6.74807 12.0703 6.74807Z" fill="#0DCA71"/>
<path d="M7.92969 6.74806H9.99998V4.67771C9.99998 3.0597 8.6883 1.74802 7.07029 1.74802H5V3.81832C5 5.43638 6.31168 6.74806 7.92969 6.74806Z" fill="#04DB7B"/>
<path d="M28.3105 13.3399C28.4424 12.8112 28.5129 12.2585 28.5129 11.6894C28.5129 7.93089 25.4551 4.87306 21.6965 4.87306H18.3037C17.1044 4.87306 15.9767 5.18478 14.9967 5.73087L14.3751 9.86332L14.9967 13.3399H28.3105Z" fill="#FC5C51"/>
<path d="M14.9967 13.3399V5.73082C12.9053 6.89613 11.4872 9.13014 11.4872 11.6895C11.4872 12.2585 11.5576 12.8112 11.6896 13.3399H14.9967Z" fill="#FC6D5A"/>
<path d="M15 28.252H30V20.4004L15 20L14.375 23.75L15 28.252Z" fill="#FDC173"/>
<path d="M15 12.627L14.375 16.875L15 20.4004H30V12.627H15Z" fill="#FDCF73"/>
<path d="M0 20.4004V28.252H15V20L0 20.4004Z" fill="#FDCF73"/>
<path d="M0 12.627H15V20.4004H0V12.627Z" fill="#FFDF8E"/>
<path d="M3.75 15.6348H5.50781V17.3926H3.75V15.6348Z" fill="#F7F0EB"/>
<path d="M3.75 23.4473H5.50781V25.2051H3.75V23.4473Z" fill="#F7F0EB"/>
<path d="M24.4922 15.6348H26.25V17.3926H24.4922V15.6348Z" fill="#EFE2DD"/>
<path d="M24.4922 23.4473H26.25V25.2051H24.4922V23.4473Z" fill="#EFE2DD"/>
<path d="M22.0703 6.74807H20L19.375 5.73082L20 4.67777C20 3.05976 21.3117 1.74809 22.9297 1.74809H25V3.81838C25 5.43639 23.6883 6.74807 22.0703 6.74807Z" fill="#04DB7B"/>
<path d="M17.9297 6.74806H20V4.67771C20 3.0597 18.6883 1.74802 17.0703 1.74802H15V3.81832C15 5.43638 16.3117 6.74806 17.9297 6.74806Z" fill="#00FF8B"/>
</svg>
