<svg width="32" height="32" viewBox="0 0 32 32" fill="none" xmlns="http://www.w3.org/2000/svg">
<path d="M14.749 21.7358L16 29.6187H22.6158L23.5565 22.9868L14.749 21.7358Z" fill="#A05F4B"/>
<path d="M8.4436 22.9868L9.38429 29.6187H16V21.7358L8.4436 22.9868Z" fill="#C47E4E"/>
<path d="M23.5565 22.9868L24 19.8592L14.749 17.3572L16 22.9868H23.5565Z" fill="#724435"/>
<path d="M16 17.3572L8 19.8592L8.44356 22.9868H16V17.3572Z" fill="#A05F4B"/>
<path d="M16 18.3812C16 18.3812 12.4183 15.6522 8 15.6522C3.58175 15.6522 0 18.3812 0 18.3812C0 18.3812 3.58175 21.1102 8 21.1102C12.4183 21.1102 16 18.3812 16 18.3812Z" fill="#C3DC4B"/>
<path d="M16 18.3812C16 18.3812 19.5817 21.1102 24 21.1102C28.4183 21.1102 32 18.3812 32 18.3812C32 18.3812 28.4183 15.6522 24 15.6522C19.5817 15.6522 16 18.3812 16 18.3812Z" fill="#00CC76"/>
<path d="M16 18.3812C16 18.3812 15.397 13.9189 12.2728 10.7947C9.14865 7.6705 4.68628 7.06756 4.68628 7.06756C4.68628 7.06756 5.28922 11.5299 8.4134 14.6541C11.5376 17.7783 16 18.3812 16 18.3812Z" fill="#00CC76"/>
<path d="M16 18.3812C16 18.3812 20.4624 17.7783 23.5866 14.6541C26.7108 11.5299 27.3137 7.06756 27.3137 7.06756C27.3137 7.06756 22.8513 7.6705 19.7271 10.7947C16.6029 13.9189 16 18.3812 16 18.3812Z" fill="#009986"/>
<path d="M13.271 10.3812C13.271 14.7995 16 18.3812 16 18.3812V2.38125C16 2.38125 13.271 5.963 13.271 10.3812Z" fill="#C3DC4B"/>
<path d="M16 2.38125V18.3812C16 18.3812 18.729 14.7995 18.729 10.3812C18.729 5.963 16 2.38125 16 2.38125Z" fill="#00CC76"/>
</svg>
