<svg width="20" height="21" viewBox="0 0 20 21" fill="none" xmlns="http://www.w3.org/2000/svg">
<g id="expand_circle_right">
<mask id="mask0_147_325" style="mask-type:alpha" maskUnits="userSpaceOnUse" x="0" y="0" width="20" height="21">
<rect id="Bounding box" y="0.5" width="20" height="20" fill="#D9D9D9"/>
</mask>
<g mask="url(#mask0_147_325)">
<path id="expand_circle_right_2" d="M10.859 10.4999L8.72754 12.6314C8.61226 12.7454 8.55462 12.888 8.55462 13.0591C8.55462 13.2301 8.61226 13.3776 8.72754 13.5016C8.85157 13.6308 9.00011 13.694 9.17317 13.6914C9.34622 13.6887 9.49469 13.6255 9.61858 13.5016L12.093 11.0272C12.2437 10.8765 12.319 10.7008 12.319 10.4999C12.319 10.2991 12.2437 10.1233 12.093 9.97263L9.60587 7.48554C9.48184 7.36165 9.33546 7.30047 9.16671 7.302C8.99796 7.30367 8.85157 7.36908 8.72754 7.49825C8.61226 7.62228 8.55379 7.76867 8.55212 7.93742C8.5506 8.10617 8.61178 8.25256 8.73566 8.37659L10.859 10.4999ZM10.0015 18.4166C8.9065 18.4166 7.87726 18.2088 6.91379 17.7933C5.95032 17.3777 5.11226 16.8137 4.39962 16.1014C3.68698 15.389 3.12275 14.5513 2.70692 13.5883C2.29122 12.6252 2.08337 11.5962 2.08337 10.5014C2.08337 9.40638 2.29115 8.37714 2.70671 7.41367C3.12226 6.4502 3.68622 5.61214 4.39858 4.8995C5.11094 4.18686 5.94865 3.62263 6.91171 3.20679C7.87476 2.7911 8.90372 2.58325 9.99858 2.58325C11.0936 2.58325 12.1228 2.79103 13.0863 3.20658C14.0498 3.62214 14.8878 4.1861 15.6005 4.89846C16.3131 5.61082 16.8773 6.44853 17.2932 7.41158C17.7089 8.37464 17.9167 9.4036 17.9167 10.4985C17.9167 11.5935 17.7089 12.6227 17.2934 13.5862C16.8778 14.5496 16.3139 15.3877 15.6015 16.1003C14.8891 16.813 14.0514 17.3772 13.0884 17.793C12.1253 18.2087 11.0964 18.4166 10.0015 18.4166Z" fill="#00BF40"/>
</g>
</g>
</svg>
