<svg width="16" height="16" viewBox="0 0 16 16" fill="none" xmlns="http://www.w3.org/2000/svg">
<g id="edit">
<mask id="mask0_11_2983" style="mask-type:alpha" maskUnits="userSpaceOnUse" x="0" y="0" width="16" height="16">
<rect id="Bounding box" width="16" height="16" fill="#D9D9D9"/>
</mask>
<g mask="url(#mask0_11_2983)">
<path id="edit_2" d="M2.93601 12.6663C2.76523 12.6663 2.62212 12.6086 2.50668 12.493C2.39112 12.3776 2.33334 12.2345 2.33334 12.0637V10.9087C2.33334 10.7461 2.36457 10.5912 2.42701 10.4438C2.48934 10.2965 2.57523 10.1681 2.68468 10.0587L11.127 1.62017C11.2278 1.52862 11.3391 1.4579 11.4608 1.40801C11.5827 1.35801 11.7105 1.33301 11.8442 1.33301C11.9778 1.33301 12.1073 1.35673 12.2325 1.40417C12.3578 1.45162 12.4688 1.52706 12.5653 1.63051L13.3795 2.45484C13.483 2.5514 13.5567 2.66251 13.6007 2.78817C13.6447 2.91384 13.6667 3.03951 13.6667 3.16517C13.6667 3.29929 13.6438 3.42723 13.598 3.54901C13.5522 3.6709 13.4794 3.78223 13.3795 3.88301L4.94101 12.315C4.83157 12.4245 4.70318 12.5103 4.55584 12.5727C4.40851 12.6351 4.25357 12.6663 4.09101 12.6663H2.93601ZM11.7013 4.12917L12.6667 3.17017L11.8295 2.33301L10.8705 3.29834L11.7013 4.12917Z" fill="#00BF40"/>
</g>
</g>
</svg>
