<svg width="28" height="28" viewBox="0 0 28 28" fill="none" xmlns="http://www.w3.org/2000/svg">
<mask id="mask0_11_2397" style="mask-type:alpha" maskUnits="userSpaceOnUse" x="0" y="0" width="29" height="28">
<rect x="0.000488281" width="28" height="28" fill="#D9D9D9"/>
</mask>
<g mask="url(#mask0_11_2397)">
<path d="M11.045 18.4916C8.93648 18.4916 7.15186 17.7607 5.6912 16.2991C4.23072 14.8377 3.50049 13.0667 3.50049 10.9861C3.50049 8.90554 4.23131 7.13444 5.69295 5.6728C7.15439 4.21117 8.9287 3.48035 11.0159 3.48035C13.1028 3.48035 14.8738 4.21117 16.3289 5.6728C17.7841 7.13444 18.5117 8.90651 18.5117 10.989C18.5117 11.8296 18.3756 12.6356 18.1034 13.4069C17.8311 14.1781 17.4357 14.8878 16.9172 15.5361L23.8005 22.3803C23.9885 22.5625 24.0825 22.7945 24.0825 23.0763C24.0825 23.3578 23.9885 23.5925 23.8005 23.7803C23.6125 23.9684 23.3777 24.0624 23.0961 24.0624C22.8146 24.0624 22.5827 23.9684 22.4005 23.7803L15.5367 16.9166C14.9534 17.4091 14.2763 17.7948 13.5055 18.0736C12.7348 18.3522 11.9146 18.4916 11.045 18.4916ZM11.0255 16.547C12.5649 16.547 13.8733 16.0042 14.9507 14.9186C16.0284 13.8331 16.5672 12.5222 16.5672 10.9861C16.5672 9.44998 16.0284 8.13904 14.9507 7.05326C13.8733 5.96768 12.5649 5.42489 11.0255 5.42489C9.47538 5.42489 8.15772 5.96768 7.07253 7.05326C5.98753 8.13904 5.44503 9.44998 5.44503 10.9861C5.44503 12.5222 5.98753 13.8331 7.07253 14.9186C8.15772 16.0042 9.47538 16.547 11.0255 16.547Z" fill="#1C1B1F"/>
</g>
</svg>
