<svg width="28" height="28" viewBox="0 0 28 28" fill="none" xmlns="http://www.w3.org/2000/svg">
<path d="M14.0004 2.32867C16.2715 2.32568 18.4545 3.20698 20.0869 4.78585C21.7194 6.36472 22.673 8.51711 22.7458 10.787L22.7504 11.0787V15.8585L24.3604 19.5405C24.4573 19.7624 24.4973 20.0049 24.477 20.2461C24.4568 20.4873 24.3767 20.7197 24.2442 20.9223C24.1116 21.1249 23.9308 21.2913 23.7178 21.4065C23.5049 21.5217 23.2667 21.582 23.0246 21.5822L17.5004 21.5857C17.5016 22.4968 17.1474 23.3725 16.5132 24.0267C15.8789 24.6808 15.0145 25.0618 14.1037 25.0887C13.193 25.1156 12.3076 24.7863 11.6358 24.1707C10.9641 23.5551 10.5588 22.7018 10.5063 21.7922L10.5004 21.5822H4.98793C4.74611 21.5822 4.50807 21.522 4.29526 21.4072C4.08244 21.2923 3.90153 21.1264 3.76881 20.9242C3.63608 20.7221 3.55572 20.4901 3.53494 20.2491C3.51416 20.0082 3.55362 19.7659 3.64977 19.544L5.25043 15.8597V11.0787C5.25043 6.23117 9.1611 2.32867 14.0004 2.32867ZM15.7504 21.5833L12.2504 21.5857C12.2504 22.0352 12.4233 22.4675 12.7333 22.793C13.0434 23.1185 13.4668 23.3122 13.9158 23.3339C14.3647 23.3557 14.8049 23.2038 15.1449 22.9098C15.485 22.6158 15.6989 22.2023 15.7423 21.7548L15.7504 21.5833ZM14.0004 4.07867C10.1271 4.07867 7.00043 7.19833 7.00043 11.0787V16.2237L5.43243 19.8333H22.5789L21.0004 16.2248V11.0938L20.9969 10.8313C20.9357 9.01765 20.1714 7.29889 18.8657 6.03865C17.5599 4.7784 15.8151 4.07551 14.0004 4.07867Z" fill="#292A2D"/>
</svg>
