<svg width="24" height="24" viewBox="0 0 24 24" fill="none" xmlns="http://www.w3.org/2000/svg">
<g id="star_5219370 (1) 1">
<g id="Group">
<path id="Vector" d="M12 22.6875C17.9025 22.6875 22.6875 17.9025 22.6875 12C22.6875 6.09746 17.9025 1.3125 12 1.3125C6.09746 1.3125 1.3125 6.09746 1.3125 12C1.3125 17.9025 6.09746 22.6875 12 22.6875Z" fill="#FEDA2C"/>
<path id="Vector_2" d="M12 20.2388C16.5501 20.2388 20.2388 16.5501 20.2388 12C20.2388 7.44987 16.5501 3.76125 12 3.76125C7.44986 3.76125 3.76125 7.44987 3.76125 12C3.76125 16.5501 7.44986 20.2388 12 20.2388Z" fill="#FCAA17"/>
<path id="Vector_3" d="M12 5.6685L13.8737 9.465L18.0632 10.0738L15.0317 13.029L15.7474 17.2016L12 15.2316L8.25263 17.2016L8.96831 13.029L5.93663 10.0738L10.1263 9.465L12 5.6685Z" fill="#FEDA2C"/>
</g>
</g>
</svg>
