<svg width="108" height="28" viewBox="0 0 108 28" fill="none" xmlns="http://www.w3.org/2000/svg">
<path d="M11.2003 18.2004C11.2003 14.3343 14.3344 11.2003 18.2004 11.2003C22.0664 11.2003 25.2005 14.3343 25.2005 18.2004C25.2005 22.0664 22.0664 25.2004 18.2004 25.2004C14.3344 25.2004 11.2003 22.0664 11.2003 18.2004Z" fill="white"/>
<path d="M2.80005 2.8002H16.8002V16.8003H2.80005V2.8002Z" fill="white"/>
<path fill-rule="evenodd" clip-rule="evenodd" d="M1.40001 0C0.626807 0 0 0.626808 0 1.40001V18.2002C0 18.9734 0.626808 19.6002 1.40001 19.6002H18.2002C18.9734 19.6002 19.6002 18.9734 19.6002 18.2002V1.40001C19.6002 0.626808 18.9734 0 18.2002 0H1.40001ZM16.8002 2.80003H2.80003V16.8002H16.8002V2.80003Z" fill="#00BF40"/>
<path fill-rule="evenodd" clip-rule="evenodd" d="M18.2005 8.3996C12.788 8.3996 8.40039 12.7872 8.40039 18.1997C8.40039 23.6121 12.788 27.9998 18.2005 27.9998C23.6129 27.9998 28.0006 23.6121 28.0006 18.1997C28.0006 12.7872 23.6129 8.3996 18.2005 8.3996ZM18.2005 11.1996C14.3345 11.1996 11.2004 14.3337 11.2004 18.1997C11.2004 22.0657 14.3345 25.1998 18.2005 25.1998C22.0665 25.1998 25.2006 22.0657 25.2006 18.1997C25.2006 14.3337 22.0665 11.1996 18.2005 11.1996Z" fill="#00BF40"/>
<g clip-path="url(#clip0_11_2387)">
<path d="M54.9311 18.9424C55.1283 18.9424 55.2269 19.041 55.2269 19.2382V21.2405C55.2269 21.4225 55.1283 21.5135 54.9311 21.5135H36.2735C36.0915 21.5135 36.0005 21.4225 36.0005 21.2405V19.2382C36.0005 19.041 36.0915 18.9424 36.2735 18.9424H44.1461V15.0972H38.9811C38.7991 15.0972 38.7081 14.9986 38.7081 14.8014V5.33607C38.7081 5.13887 38.7991 5.04028 38.9811 5.04028H52.2235C52.4207 5.04028 52.5193 5.13887 52.5193 5.33607V14.8014C52.5193 14.9986 52.4207 15.0972 52.2235 15.0972H47.0585V18.9424H54.9311ZM49.6069 7.58863H41.6205V12.5261H49.6069V7.58863Z" fill="black"/>
<path d="M75.0178 10.4555C75.2302 10.4555 75.3364 10.5617 75.3364 10.7741V12.7536C75.3364 12.9508 75.2302 13.0494 75.0178 13.0494H72.1282V23.1518C72.1282 23.3338 72.022 23.4248 71.8096 23.4248H69.4888C69.3068 23.4248 69.2158 23.3338 69.2158 23.1518V3.72059C69.2158 3.5234 69.3068 3.4248 69.4888 3.4248H71.8096C72.022 3.4248 72.1282 3.5234 72.1282 3.72059V10.4555H75.0178ZM61.639 5.13129C62.7918 5.13129 63.8005 5.39674 64.6652 5.92765C65.545 6.45855 66.22 7.23975 66.6902 8.27122C67.1756 9.3027 67.4183 10.5541 67.4183 12.0255C67.4183 13.512 67.1756 14.771 66.6902 15.8025C66.22 16.834 65.545 17.6152 64.6652 18.1461C63.8005 18.677 62.7918 18.9424 61.639 18.9424C60.471 18.9424 59.4471 18.677 58.5673 18.1461C57.7027 17.6152 57.0277 16.834 56.5423 15.8025C56.0721 14.771 55.837 13.512 55.837 12.0255C55.837 10.5541 56.0721 9.3027 56.5423 8.27122C57.0277 7.23975 57.7027 6.45855 58.5673 5.92765C59.4471 5.39674 60.471 5.13129 61.639 5.13129ZM61.639 16.3486C62.5491 16.3486 63.2545 15.9845 63.755 15.2564C64.2708 14.5283 64.5286 13.4513 64.5286 12.0255C64.5286 10.6148 64.2708 9.5454 63.755 8.8173C63.2545 8.07403 62.5491 7.70239 61.639 7.70239C60.7289 7.70239 60.0159 8.07403 59.5002 8.8173C58.9845 9.5454 58.7266 10.6148 58.7266 12.0255C58.7266 13.4362 58.9845 14.5132 59.5002 15.2564C60.0159 15.9845 60.7289 16.3486 61.639 16.3486Z" fill="black"/>
<path d="M92.4197 3.4248C92.6321 3.4248 92.7383 3.5234 92.7383 3.72059V13.8912C92.7383 14.0733 92.6321 14.1643 92.4197 14.1643H90.1217C89.9245 14.1643 89.8259 14.0733 89.8259 13.8912V10.046H87.1637C86.921 11.214 86.2991 12.1544 85.298 12.8674C84.2969 13.5803 83.0834 13.9367 81.6575 13.9367C80.5805 13.9367 79.6173 13.732 78.7678 13.3224C77.9184 12.8977 77.251 12.3213 76.7656 11.5932C76.2953 10.8499 76.0602 10.0005 76.0602 9.04483C76.0602 8.10436 76.2953 7.2625 76.7656 6.51923C77.251 5.77596 77.9184 5.19955 78.7678 4.78999C79.6173 4.36527 80.5805 4.1529 81.6575 4.1529C82.9772 4.1529 84.1148 4.46386 85.0705 5.08578C86.0413 5.69253 86.6935 6.51923 87.0272 7.56587H89.8259V3.72059C89.8259 3.5234 89.9245 3.4248 90.1217 3.4248H92.4197ZM81.6575 11.4794C82.4311 11.4794 83.0834 11.2519 83.6143 10.7968C84.1452 10.3418 84.4106 9.75776 84.4106 9.04483C84.4106 8.3319 84.1452 7.7479 83.6143 7.29284C83.0834 6.82261 82.4311 6.58749 81.6575 6.58749C80.8839 6.58749 80.2316 6.82261 79.7007 7.29284C79.1698 7.7479 78.9044 8.3319 78.9044 9.04483C78.9044 9.75776 79.1698 10.3418 79.7007 10.7968C80.2316 11.2519 80.8839 11.4794 81.6575 11.4794ZM92.4425 15.1882C92.6397 15.1882 92.7383 15.2792 92.7383 15.4612V23.129C92.7383 23.3262 92.6397 23.4248 92.4425 23.4248H79.9055C79.7083 23.4248 79.6097 23.3262 79.6097 23.129V15.4612C79.6097 15.2792 79.7083 15.1882 79.9055 15.1882H82.2036C82.4008 15.1882 82.4994 15.2792 82.4994 15.4612V17.0539H89.8259V15.4612C89.8259 15.2792 89.9245 15.1882 90.1217 15.1882H92.4425ZM82.4994 19.3975V21.0585H89.8259V19.3975H82.4994Z" fill="black"/>
</g>
<defs>
<clipPath id="clip0_11_2387">
<rect width="72" height="24" fill="white" transform="translate(36.0005 2)"/>
</clipPath>
</defs>
</svg>
