<svg width="28" height="28" viewBox="0 0 28 28" fill="none" xmlns="http://www.w3.org/2000/svg">
<path d="M11.2003 18.2004C11.2003 14.3343 14.3344 11.2003 18.2004 11.2003C22.0664 11.2003 25.2005 14.3343 25.2005 18.2004C25.2005 22.0664 22.0664 25.2004 18.2004 25.2004C14.3344 25.2004 11.2003 22.0664 11.2003 18.2004Z" fill="white"/>
<path d="M2.80005 2.8002H16.8002V16.8003H2.80005V2.8002Z" fill="white"/>
<path fill-rule="evenodd" clip-rule="evenodd" d="M1.40001 0C0.626807 0 0 0.626808 0 1.40001V18.2002C0 18.9734 0.626808 19.6002 1.40001 19.6002H18.2002C18.9734 19.6002 19.6002 18.9734 19.6002 18.2002V1.40001C19.6002 0.626808 18.9734 0 18.2002 0H1.40001ZM16.8002 2.80003H2.80003V16.8002H16.8002V2.80003Z" fill="#00BF40"/>
<path fill-rule="evenodd" clip-rule="evenodd" d="M18.2005 8.3996C12.788 8.3996 8.40039 12.7872 8.40039 18.1997C8.40039 23.6121 12.788 27.9998 18.2005 27.9998C23.6129 27.9998 28.0006 23.6121 28.0006 18.1997C28.0006 12.7872 23.6129 8.3996 18.2005 8.3996ZM18.2005 11.1996C14.3345 11.1996 11.2004 14.3337 11.2004 18.1997C11.2004 22.0657 14.3345 25.1998 18.2005 25.1998C22.0665 25.1998 25.2006 22.0657 25.2006 18.1997C25.2006 14.3337 22.0665 11.1996 18.2005 11.1996Z" fill="#00BF40"/>
</svg>
