<svg width="20" height="20" viewBox="0 0 20 20" fill="none" xmlns="http://www.w3.org/2000/svg">
<mask id="mask0_11_2625" style="mask-type:alpha" maskUnits="userSpaceOnUse" x="0" y="0" width="20" height="20">
<rect width="20" height="20" fill="#D9D9D9"/>
</mask>
<g mask="url(#mask0_11_2625)">
<path d="M10.8589 9.99999L8.72748 12.1315C8.6122 12.2455 8.55456 12.3881 8.55456 12.5592C8.55456 12.7301 8.6122 12.8776 8.72748 13.0017C8.85151 13.1308 9.00005 13.1941 9.1731 13.1915C9.34616 13.1888 9.49463 13.1255 9.61852 13.0017L12.0929 10.5273C12.2436 10.3766 12.3189 10.2008 12.3189 9.99999C12.3189 9.79916 12.2436 9.6234 12.0929 9.4727L9.60581 6.98562C9.48178 6.86173 9.3354 6.80055 9.16665 6.80208C8.9979 6.80374 8.85151 6.86916 8.72748 6.99833C8.6122 7.12236 8.55373 7.26874 8.55206 7.43749C8.55054 7.60625 8.61172 7.75263 8.7356 7.87666L10.8589 9.99999ZM10.0014 17.9167C8.90644 17.9167 7.8772 17.7089 6.91373 17.2933C5.95026 16.8778 5.1122 16.3138 4.39956 15.6015C3.68692 14.8891 3.12269 14.0514 2.70685 13.0883C2.29116 12.1253 2.08331 11.0963 2.08331 10.0015C2.08331 8.90645 2.29109 7.87722 2.70665 6.91374C3.1222 5.95027 3.68616 5.11222 4.39852 4.39958C5.11088 3.68694 5.94859 3.1227 6.91165 2.70687C7.8747 2.29118 8.90366 2.08333 9.99852 2.08333C11.0935 2.08333 12.1228 2.29111 13.0862 2.70666C14.0497 3.12222 14.8878 3.68618 15.6004 4.39854C16.313 5.1109 16.8773 5.94861 17.2931 6.91166C17.7088 7.87472 17.9166 8.90368 17.9166 9.99854C17.9166 11.0935 17.7089 12.1228 17.2933 13.0862C16.8778 14.0497 16.3138 14.8878 15.6014 15.6004C14.8891 16.3131 14.0514 16.8773 13.0883 17.2931C12.1253 17.7088 11.0963 17.9167 10.0014 17.9167Z" fill="#00BF40"/>
</g>
</svg>
