<svg width="160" height="120" viewBox="0 0 160 120" fill="none" xmlns="http://www.w3.org/2000/svg">
<g id="Frame 102">
<g id="Vector">
<path d="M129.978 74.7622C127.258 83.9522 122.045 92.2123 114.915 98.6293C107.785 105.046 99.0162 109.37 89.578 111.123C80.1397 112.876 70.3997 111.99 61.4347 108.562C52.4697 105.134 44.629 99.2983 38.7794 91.7C32.9298 84.1016 29.2992 75.0366 28.289 65.5072C27.2788 55.9777 28.9284 46.355 33.0553 37.703C37.1823 29.0509 43.6258 21.7066 51.6736 16.4819C59.7213 11.2571 69.0598 8.3556 78.6566 8.09804L79.2162 28.8747C73.4582 29.0292 67.8551 30.7701 63.0264 33.905C58.1978 37.0398 54.3316 41.4464 51.8555 46.6377C49.3793 51.8289 48.3896 57.6025 48.9957 63.3202C49.6018 69.0378 51.7802 74.4768 55.2899 79.0358C58.7997 83.5948 63.5041 87.0962 68.8831 89.153C74.2621 91.2097 80.1061 91.7415 85.7691 90.6898C91.432 89.6381 96.6933 87.0437 100.971 83.1934C105.249 79.3432 108.377 74.3872 110.009 68.8732L129.978 74.7622Z" fill="#00BF40"/>
<path d="M109.374 17.0836C118.442 23.2872 125.309 32.1969 128.992 42.5358C132.675 52.8747 132.984 64.1119 129.875 74.6369L109.903 68.7594C111.768 62.4444 111.583 55.702 109.373 49.4987C107.163 43.2954 103.043 37.9496 97.6022 34.2274L109.374 17.0836Z" fill="#00AEFF"/>
<path d="M78.5792 8.01781C89.5685 7.73062 100.367 10.9234 109.427 17.1386L97.6326 34.2673C92.1968 30.5382 85.7178 28.6225 79.1242 28.7948L78.5792 8.01781Z" fill="#FF9200"/>
</g>
</g>
</svg>
