<svg width="24" height="25" viewBox="0 0 24 25" fill="none" xmlns="http://www.w3.org/2000/svg">
<g id="ph:letter-circle-p-fill">
<path id="Vector" d="M14.625 11.375C14.625 11.8723 14.4275 12.3492 14.0758 12.7008C13.7242 13.0525 13.2473 13.25 12.75 13.25H10.5V9.5H12.75C13.2473 9.5 13.7242 9.69754 14.0758 10.0492C14.4275 10.4008 14.625 10.8777 14.625 11.375ZM21.75 12.5C21.75 14.4284 21.1782 16.3134 20.1068 17.9168C19.0355 19.5202 17.5127 20.7699 15.7312 21.5078C13.9496 22.2458 11.9892 22.4389 10.0979 22.0627C8.20655 21.6865 6.46927 20.7579 5.10571 19.3943C3.74214 18.0307 2.81355 16.2934 2.43734 14.4021C2.06113 12.5108 2.25422 10.5504 2.99217 8.76884C3.73013 6.98726 4.97981 5.46452 6.58319 4.39317C8.18657 3.32183 10.0716 2.75 12 2.75C14.585 2.75273 17.0634 3.78084 18.8913 5.60872C20.7192 7.43661 21.7473 9.91498 21.75 12.5ZM16.125 11.375C16.125 10.4799 15.7694 9.62145 15.1365 8.98852C14.5035 8.35558 13.6451 8 12.75 8H9.75C9.55108 8 9.36032 8.07902 9.21967 8.21967C9.07901 8.36032 9 8.55109 9 8.75V16.25C9 16.4489 9.07901 16.6397 9.21967 16.7803C9.36032 16.921 9.55108 17 9.75 17C9.94891 17 10.1397 16.921 10.2803 16.7803C10.421 16.6397 10.5 16.4489 10.5 16.25V14.75H12.75C13.1932 14.75 13.6321 14.6627 14.0416 14.4931C14.451 14.3235 14.8231 14.0749 15.1365 13.7615C15.4499 13.4481 15.6985 13.076 15.8681 12.6666C16.0377 12.2571 16.125 11.8182 16.125 11.375Z" fill="white"/>
</g>
</svg>
