<svg width="24" height="24" viewBox="0 0 24 24" fill="none" xmlns="http://www.w3.org/2000/svg">
<path d="M15.0625 10.6875C15.0625 11.2677 14.832 11.8241 14.4218 12.2343C14.0116 12.6445 13.4552 12.875 12.875 12.875H10.25V8.5H12.875C13.4552 8.5 14.0116 8.73047 14.4218 9.1407C14.832 9.55094 15.0625 10.1073 15.0625 10.6875ZM23.375 12C23.375 14.2498 22.7079 16.449 21.458 18.3196C20.2081 20.1902 18.4315 21.6482 16.353 22.5091C14.2745 23.3701 11.9874 23.5953 9.78085 23.1564C7.57432 22.7175 5.54749 21.6342 3.95667 20.0433C2.36584 18.4525 1.28248 16.4257 0.843573 14.2192C0.404666 12.0126 0.629929 9.72548 1.49088 7.64698C2.35182 5.56847 3.80978 3.79193 5.68039 2.54203C7.551 1.29213 9.75024 0.625 12 0.625C15.0159 0.628185 17.9073 1.82764 20.0398 3.96018C22.1724 6.09271 23.3718 8.98414 23.375 12ZM16.8125 10.6875C16.8125 9.64321 16.3977 8.64169 15.6592 7.90327C14.9208 7.16484 13.9193 6.75 12.875 6.75H9.375C9.14294 6.75 8.92038 6.84219 8.75629 7.00628C8.59219 7.17038 8.5 7.39294 8.5 7.625V16.375C8.5 16.6071 8.59219 16.8296 8.75629 16.9937C8.92038 17.1578 9.14294 17.25 9.375 17.25C9.60707 17.25 9.82963 17.1578 9.99372 16.9937C10.1578 16.8296 10.25 16.6071 10.25 16.375V14.625H12.875C13.3921 14.625 13.9041 14.5232 14.3818 14.3253C14.8595 14.1274 15.2936 13.8374 15.6592 13.4717C16.0249 13.1061 16.3149 12.672 16.5128 12.1943C16.7107 11.7166 16.8125 11.2046 16.8125 10.6875Z" fill="#8A8A8A"/>
</svg>
