<svg width="28" height="28" viewBox="0 0 28 28" fill="none" xmlns="http://www.w3.org/2000/svg">
<mask id="mask0_11_4825" style="mask-type:alpha" maskUnits="userSpaceOnUse" x="0" y="0" width="28" height="28">
<rect width="28" height="28" fill="#D9D9D9"/>
</mask>
<g mask="url(#mask0_11_4825)">
<path d="M7.02667 20.1738C8.01834 19.438 9.09867 18.8569 10.2677 18.4305C11.4365 18.0043 12.6805 17.7912 13.9998 17.7912C15.3191 17.7912 16.5632 18.0043 17.732 18.4305C18.901 18.8569 19.9813 19.438 20.973 20.1738C21.6983 19.3766 22.273 18.4537 22.697 17.4053C23.1211 16.3568 23.3332 15.2216 23.3332 13.9995C23.3332 11.4134 22.4241 9.2113 20.6061 7.39324C18.788 5.57519 16.5859 4.66616 13.9998 4.66616C11.4137 4.66616 9.21164 5.57519 7.39359 7.39324C5.57553 9.2113 4.6665 11.4134 4.6665 13.9995C4.6665 15.2216 4.87855 16.3568 5.30263 17.4053C5.72671 18.4537 6.30139 19.3766 7.02667 20.1738ZM14.0001 14.8745C12.935 14.8745 12.0367 14.5089 11.3054 13.7778C10.5739 13.0465 10.2082 12.1483 10.2082 11.0831C10.2082 10.018 10.5737 9.11972 11.3048 8.38841C12.0361 7.65691 12.9344 7.29116 13.9995 7.29116C15.0647 7.29116 15.9629 7.65671 16.6943 8.38783C17.4258 9.11913 17.7915 10.0174 17.7915 11.0825C17.7915 12.1477 17.4259 13.0459 16.6948 13.7772C15.9635 14.5087 15.0653 14.8745 14.0001 14.8745ZM13.9998 25.0828C12.4608 25.0828 11.0171 24.7934 9.66859 24.2145C8.32011 23.6357 7.14713 22.8474 6.14963 21.8497C5.15193 20.8522 4.36366 19.6792 3.7848 18.3307C3.20593 16.9823 2.9165 15.5385 2.9165 13.9995C2.9165 12.4605 3.20593 11.0167 3.7848 9.66824C4.36366 8.31977 5.15193 7.14678 6.14963 6.14928C7.14713 5.15159 8.32011 4.36331 9.66859 3.78445C11.0171 3.20559 12.4608 2.91616 13.9998 2.91616C15.5389 2.91616 16.9826 3.20559 18.3311 3.78445C19.6796 4.36331 20.8525 5.15159 21.85 6.14928C22.8477 7.14678 23.636 8.31977 24.2149 9.66824C24.7937 11.0167 25.0832 12.4605 25.0832 13.9995C25.0832 15.5385 24.7937 16.9823 24.2149 18.3307C23.636 19.6792 22.8477 20.8522 21.85 21.8497C20.8525 22.8474 19.6796 23.6357 18.3311 24.2145C16.9826 24.7934 15.5389 25.0828 13.9998 25.0828ZM13.9998 23.3328C15.0528 23.3328 16.0679 23.1635 17.0454 22.8247C18.0229 22.4858 18.8908 22.0121 19.6491 21.4035C18.8908 20.817 18.0342 20.3601 17.0793 20.0326C16.1241 19.705 15.0977 19.5412 13.9998 19.5412C12.902 19.5412 11.8737 19.703 10.9149 20.0268C9.95607 20.3507 9.10129 20.8096 8.35054 21.4035C9.10888 22.0121 9.97678 22.4858 10.9543 22.8247C11.9317 23.1635 12.9469 23.3328 13.9998 23.3328ZM13.9998 13.1245C14.5803 13.1245 15.0656 12.9293 15.4558 12.5388C15.8463 12.1486 16.0415 11.6632 16.0415 11.0828C16.0415 10.5024 15.8463 10.0171 15.4558 9.62683C15.0656 9.23638 14.5803 9.04116 13.9998 9.04116C13.4194 9.04116 12.9341 9.23638 12.5438 9.62683C12.1534 10.0171 11.9582 10.5024 11.9582 11.0828C11.9582 11.6632 12.1534 12.1486 12.5438 12.5388C12.9341 12.9293 13.4194 13.1245 13.9998 13.1245Z" fill="#8A8A8A"/>
</g>
</svg>
