<svg width="28" height="28" viewBox="0 0 28 28" fill="none" xmlns="http://www.w3.org/2000/svg">
<path d="M15.037 19.1853C15.037 21.4737 16.8967 23.3335 19.1851 23.3335C21.4735 23.3335 23.3333 21.4737 23.3333 19.1853C23.3333 16.897 21.4735 15.0372 19.1851 15.0372C16.8967 15.0372 15.037 16.897 15.037 19.1853ZM21.9505 19.1853C21.9505 20.7132 20.713 21.9508 19.1851 21.9508C17.6572 21.9508 16.4197 20.7132 16.4197 19.1853C16.4197 17.6574 17.6572 16.4199 19.1851 16.4199C20.713 16.4199 21.9505 17.6574 21.9505 19.1853Z" fill="#2A2A2A"/>
<path d="M23.3333 12.2717V5.35815C23.3333 4.9779 23.0221 4.66679 22.6419 4.66679L15.7283 4.66679C15.3481 4.66679 15.037 4.9779 15.037 5.35815L15.037 12.2717C15.037 12.652 15.3481 12.9631 15.7283 12.9631L22.6419 12.9631C23.0221 12.9631 23.3333 12.652 23.3333 12.2717ZM16.4197 11.5804V6.04951L21.9505 6.04951V11.5804H16.4197Z" fill="#2A2A2A"/>
<path d="M12.9631 12.2717L12.9631 5.35815C12.9631 4.9779 12.652 4.66679 12.2718 4.66679L5.3582 4.66679C4.97795 4.66679 4.66684 4.9779 4.66684 5.35815L4.66684 12.2717C4.66684 12.652 4.97795 12.9631 5.3582 12.9631L12.2718 12.9631C12.652 12.9631 12.9631 12.652 12.9631 12.2717ZM6.04956 11.5804L6.04956 6.04951L11.5804 6.04951V11.5804H6.04956Z" fill="#2A2A2A"/>
<path d="M12.9631 22.6421L12.9631 15.7286C12.9631 15.3483 12.652 15.0372 12.2718 15.0372L5.3582 15.0372C4.97795 15.0372 4.66684 15.3483 4.66684 15.7286L4.66684 22.6421C4.66684 23.0224 4.97795 23.3335 5.3582 23.3335H12.2718C12.652 23.3335 12.9631 23.0224 12.9631 22.6421ZM6.04956 21.9508L6.04956 16.4199H11.5804V21.9508H6.04956Z" fill="#2A2A2A"/>
</svg>
