<svg width="28" height="28" viewBox="0 0 28 28" fill="none" xmlns="http://www.w3.org/2000/svg">
<path d="M17.0625 12.6875C17.0625 13.2677 16.832 13.8241 16.4218 14.2343C16.0116 14.6445 15.4552 14.875 14.875 14.875H12.25V10.5H14.875C15.4552 10.5 16.0116 10.7305 16.4218 11.1407C16.832 11.5509 17.0625 12.1073 17.0625 12.6875ZM25.375 14C25.375 16.2498 24.7079 18.449 23.458 20.3196C22.2081 22.1902 20.4315 23.6482 18.353 24.5091C16.2745 25.3701 13.9874 25.5953 11.7808 25.1564C9.57431 24.7175 7.54748 23.6342 5.95666 22.0433C4.36584 20.4525 3.28247 18.4257 2.84356 16.2192C2.40466 14.0126 2.62992 11.7255 3.49087 9.64698C4.35181 7.56847 5.80978 5.79193 7.68039 4.54203C9.551 3.29213 11.7502 2.625 14 2.625C17.0159 2.62818 19.9073 3.82764 22.0398 5.96018C24.1724 8.09271 25.3718 10.9841 25.375 14ZM18.8125 12.6875C18.8125 11.6432 18.3977 10.6417 17.6592 9.90327C16.9208 9.16484 15.9193 8.75 14.875 8.75H11.375C11.1429 8.75 10.9204 8.84219 10.7563 9.00628C10.5922 9.17038 10.5 9.39294 10.5 9.625V18.375C10.5 18.6071 10.5922 18.8296 10.7563 18.9937C10.9204 19.1578 11.1429 19.25 11.375 19.25C11.6071 19.25 11.8296 19.1578 11.9937 18.9937C12.1578 18.8296 12.25 18.6071 12.25 18.375V16.625H14.875C15.3921 16.625 15.9041 16.5232 16.3818 16.3253C16.8595 16.1274 17.2936 15.8374 17.6592 15.4717C18.0249 15.1061 18.3149 14.672 18.5128 14.1943C18.7107 13.7166 18.8125 13.2046 18.8125 12.6875Z" fill="#00BF40"/>
</svg>
