<svg width="56" height="56" viewBox="0 0 56 56" fill="none" xmlns="http://www.w3.org/2000/svg">
<rect width="56" height="56" rx="28" fill="#787880" fill-opacity="0.07"/>
<path d="M35 16.3333H21C19.7113 16.3333 18.6666 17.3779 18.6666 18.6666V37.3333C18.6666 38.6219 19.7113 39.6666 21 39.6666H35C36.2886 39.6666 37.3333 38.6219 37.3333 37.3333V18.6666C37.3333 17.3779 36.2886 16.3333 35 16.3333Z" stroke="#989BA2" stroke-width="2.33333" stroke-linecap="round" stroke-linejoin="round"/>
<path d="M24.4999 39.6667V35H31.4999V39.6667M23.3333 21H23.3449M32.6666 21H32.6783M27.9999 21H28.0116M27.9999 25.6667H28.0116M27.9999 30.3333H28.0116M32.6666 25.6667H32.6783M32.6666 30.3333H32.6783M23.3333 25.6667H23.3449M23.3333 30.3333H23.3449" stroke="#989BA2" stroke-width="2.33333" stroke-linecap="round" stroke-linejoin="round"/>
</svg>
