<svg width="20" height="20" viewBox="0 0 20 20" fill="none" xmlns="http://www.w3.org/2000/svg">
<g id="fluent-emoji:desert-island">
<g id="Group">
<path id="Vector" d="M11.5406 5.22501H9.07189C8.89064 5.22501 8.74689 5.36876 8.74689 5.55001V16.225C8.74689 16.4063 8.89064 16.55 9.07189 16.55H11.5406C11.7219 16.55 11.8656 16.4063 11.8656 16.225V5.55626C11.8656 5.37501 11.7219 5.22501 11.5406 5.22501Z" fill="url(#paint0_linear_11_2758)"/>
<path id="Vector_2" d="M11.5406 5.22501H9.07189C8.89064 5.22501 8.74689 5.36876 8.74689 5.55001V16.225C8.74689 16.4063 8.89064 16.55 9.07189 16.55H11.5406C11.7219 16.55 11.8656 16.4063 11.8656 16.225V5.55626C11.8656 5.37501 11.7219 5.22501 11.5406 5.22501Z" fill="url(#paint1_linear_11_2758)"/>
<path id="Vector_3" d="M11.5406 5.22501H9.07189C8.89064 5.22501 8.74689 5.36876 8.74689 5.55001V16.225C8.74689 16.4063 8.89064 16.55 9.07189 16.55H11.5406C11.7219 16.55 11.8656 16.4063 11.8656 16.225V5.55626C11.8656 5.37501 11.7219 5.22501 11.5406 5.22501Z" fill="url(#paint2_radial_11_2758)"/>
<path id="Vector_4" d="M11.5406 5.22501H9.07189C8.89064 5.22501 8.74689 5.36876 8.74689 5.55001V16.225C8.74689 16.4063 8.89064 16.55 9.07189 16.55H11.5406C11.7219 16.55 11.8656 16.4063 11.8656 16.225V5.55626C11.8656 5.37501 11.7219 5.22501 11.5406 5.22501Z" fill="url(#paint3_radial_11_2758)"/>
<path id="Vector_5" d="M11.5406 5.22501H9.07189C8.89064 5.22501 8.74689 5.36876 8.74689 5.55001V16.225C8.74689 16.4063 8.89064 16.55 9.07189 16.55H11.5406C11.7219 16.55 11.8656 16.4063 11.8656 16.225V5.55626C11.8656 5.37501 11.7219 5.22501 11.5406 5.22501Z" fill="url(#paint4_radial_11_2758)"/>
<path id="Vector_6" d="M11.5406 5.22501H9.07189C8.89064 5.22501 8.74689 5.36876 8.74689 5.55001V16.225C8.74689 16.4063 8.89064 16.55 9.07189 16.55H11.5406C11.7219 16.55 11.8656 16.4063 11.8656 16.225V5.55626C11.8656 5.37501 11.7219 5.22501 11.5406 5.22501Z" fill="url(#paint5_radial_11_2758)"/>
<path id="Vector_7" d="M11.5406 5.22501H9.07189C8.89064 5.22501 8.74689 5.36876 8.74689 5.55001V16.225C8.74689 16.4063 8.89064 16.55 9.07189 16.55H11.5406C11.7219 16.55 11.8656 16.4063 11.8656 16.225V5.55626C11.8656 5.37501 11.7219 5.22501 11.5406 5.22501Z" fill="url(#paint6_radial_11_2758)"/>
<path id="Vector_8" d="M6.59063 5.3125H9.71563C9.75628 5.31347 9.79669 5.30594 9.83426 5.29039C9.87183 5.27484 9.90573 5.2516 9.9338 5.22218C9.96187 5.19276 9.98348 5.1578 9.99725 5.11954C10.011 5.08128 10.0166 5.04056 10.0138 5C9.85438 3.25688 8.37313 1.875 6.59063 1.875C4.92188 1.875 3.51563 3.09375 3.21563 4.68125C3.14688 5.00625 3.42188 5.3125 3.75938 5.3125H6.59063Z" fill="url(#paint7_radial_11_2758)"/>
<path id="Vector_9" d="M6.59063 5.3125H9.71563C9.75628 5.31347 9.79669 5.30594 9.83426 5.29039C9.87183 5.27484 9.90573 5.2516 9.9338 5.22218C9.96187 5.19276 9.98348 5.1578 9.99725 5.11954C10.011 5.08128 10.0166 5.04056 10.0138 5C9.85438 3.25688 8.37313 1.875 6.59063 1.875C4.92188 1.875 3.51563 3.09375 3.21563 4.68125C3.14688 5.00625 3.42188 5.3125 3.75938 5.3125H6.59063Z" fill="url(#paint8_radial_11_2758)"/>
<path id="Vector_10" d="M6.59063 5.3125H9.71563C9.75628 5.31347 9.79669 5.30594 9.83426 5.29039C9.87183 5.27484 9.90573 5.2516 9.9338 5.22218C9.96187 5.19276 9.98348 5.1578 9.99725 5.11954C10.011 5.08128 10.0166 5.04056 10.0138 5C9.85438 3.25688 8.37313 1.875 6.59063 1.875C4.92188 1.875 3.51563 3.09375 3.21563 4.68125C3.14688 5.00625 3.42188 5.3125 3.75938 5.3125H6.59063Z" fill="url(#paint9_linear_11_2758)"/>
<path id="Vector_11" d="M6.59063 5.3125H9.71563C9.75628 5.31347 9.79669 5.30594 9.83426 5.29039C9.87183 5.27484 9.90573 5.2516 9.9338 5.22218C9.96187 5.19276 9.98348 5.1578 9.99725 5.11954C10.011 5.08128 10.0166 5.04056 10.0138 5C9.85438 3.25688 8.37313 1.875 6.59063 1.875C4.92188 1.875 3.51563 3.09375 3.21563 4.68125C3.14688 5.00625 3.42188 5.3125 3.75938 5.3125H6.59063Z" fill="url(#paint10_linear_11_2758)"/>
<path id="Vector_12" d="M6.59063 5.3125H9.71563C9.75628 5.31347 9.79669 5.30594 9.83426 5.29039C9.87183 5.27484 9.90573 5.2516 9.9338 5.22218C9.96187 5.19276 9.98348 5.1578 9.99725 5.11954C10.011 5.08128 10.0166 5.04056 10.0138 5C9.85438 3.25688 8.37313 1.875 6.59063 1.875C4.92188 1.875 3.51563 3.09375 3.21563 4.68125C3.14688 5.00625 3.42188 5.3125 3.75938 5.3125H6.59063Z" fill="url(#paint11_radial_11_2758)"/>
<path id="Vector_13" d="M6.59063 5.3125H9.71563C9.75628 5.31347 9.79669 5.30594 9.83426 5.29039C9.87183 5.27484 9.90573 5.2516 9.9338 5.22218C9.96187 5.19276 9.98348 5.1578 9.99725 5.11954C10.011 5.08128 10.0166 5.04056 10.0138 5C9.85438 3.25688 8.37313 1.875 6.59063 1.875C4.92188 1.875 3.51563 3.09375 3.21563 4.68125C3.14688 5.00625 3.42188 5.3125 3.75938 5.3125H6.59063Z" fill="url(#paint12_radial_11_2758)"/>
<g id="Group_2" filter="url(#filter0_i_11_2758)">
<path id="Vector_14" fill-rule="evenodd" clip-rule="evenodd" d="M17.975 17.5063H2.71875C3.54797 16.24 4.67962 15.2004 6.01145 14.4813C7.34328 13.7622 8.83331 13.3863 10.3469 13.3875C13.5381 13.3875 16.3456 15.025 17.975 17.5063Z" fill="url(#paint13_radial_11_2758)"/>
</g>
<path id="Vector_15" d="M13.3656 5.3125H10.2406C10.2 5.31347 10.1596 5.30594 10.122 5.29039C10.0844 5.27484 10.0505 5.2516 10.0225 5.22218C9.99439 5.19276 9.97278 5.1578 9.95901 5.11954C9.94524 5.08128 9.93962 5.04056 9.94251 5C10.1019 3.25688 11.5831 1.875 13.3656 1.875C15.0344 1.875 16.4406 3.09375 16.7406 4.68125C16.8031 5.0125 16.5344 5.3125 16.1969 5.3125H13.3656Z" fill="url(#paint14_radial_11_2758)"/>
<path id="Vector_16" d="M13.3656 5.3125H10.2406C10.2 5.31347 10.1596 5.30594 10.122 5.29039C10.0844 5.27484 10.0505 5.2516 10.0225 5.22218C9.99439 5.19276 9.97278 5.1578 9.95901 5.11954C9.94524 5.08128 9.93962 5.04056 9.94251 5C10.1019 3.25688 11.5831 1.875 13.3656 1.875C15.0344 1.875 16.4406 3.09375 16.7406 4.68125C16.8031 5.0125 16.5344 5.3125 16.1969 5.3125H13.3656Z" fill="url(#paint15_radial_11_2758)"/>
<path id="Vector_17" d="M13.3656 5.3125H10.2406C10.2 5.31347 10.1596 5.30594 10.122 5.29039C10.0844 5.27484 10.0505 5.2516 10.0225 5.22218C9.99439 5.19276 9.97278 5.1578 9.95901 5.11954C9.94524 5.08128 9.93962 5.04056 9.94251 5C10.1019 3.25688 11.5831 1.875 13.3656 1.875C15.0344 1.875 16.4406 3.09375 16.7406 4.68125C16.8031 5.0125 16.5344 5.3125 16.1969 5.3125H13.3656Z" fill="url(#paint16_linear_11_2758)"/>
<path id="Vector_18" d="M11.9844 7.56875L10.1219 5.70625C9.90312 5.4875 9.92187 5.10625 10.1781 4.93125C11.4219 4.08125 13.1469 4.2125 14.2469 5.30625C15.3469 6.40625 15.4719 8.13125 14.6219 9.375C14.4469 9.63125 14.0656 9.65625 13.8469 9.43125L11.9844 7.56875Z" fill="url(#paint17_radial_11_2758)"/>
<path id="Vector_19" d="M11.9844 7.56875L10.1219 5.70625C9.90312 5.4875 9.92187 5.10625 10.1781 4.93125C11.4219 4.08125 13.1469 4.2125 14.2469 5.30625C15.3469 6.40625 15.4719 8.13125 14.6219 9.375C14.4469 9.63125 14.0656 9.65625 13.8469 9.43125L11.9844 7.56875Z" fill="url(#paint18_radial_11_2758)"/>
<path id="Vector_20" d="M11.9844 7.56875L10.1219 5.70625C9.90312 5.4875 9.92187 5.10625 10.1781 4.93125C11.4219 4.08125 13.1469 4.2125 14.2469 5.30625C15.3469 6.40625 15.4719 8.13125 14.6219 9.375C14.4469 9.63125 14.0656 9.65625 13.8469 9.43125L11.9844 7.56875Z" fill="url(#paint19_radial_11_2758)"/>
<path id="Vector_21" d="M11.9844 7.56875L10.1219 5.70625C9.90312 5.4875 9.92187 5.10625 10.1781 4.93125C11.4219 4.08125 13.1469 4.2125 14.2469 5.30625C15.3469 6.40625 15.4719 8.13125 14.6219 9.375C14.4469 9.63125 14.0656 9.65625 13.8469 9.43125L11.9844 7.56875Z" fill="url(#paint20_radial_11_2758)"/>
<path id="Vector_22" d="M11.9844 7.56875L10.1219 5.70625C9.90312 5.4875 9.92187 5.10625 10.1781 4.93125C11.4219 4.08125 13.1469 4.2125 14.2469 5.30625C15.3469 6.40625 15.4719 8.13125 14.6219 9.375C14.4469 9.63125 14.0656 9.65625 13.8469 9.43125L11.9844 7.56875Z" fill="url(#paint21_linear_11_2758)"/>
<path id="Vector_23" d="M7.90314 7.6125L9.82189 5.69375C10.0469 5.46875 10.0281 5.075 9.75939 4.89375C8.47814 4.01875 6.70314 4.15 5.57189 5.28125C4.44064 6.4125 4.30939 8.19375 5.18439 9.46875C5.36564 9.7375 5.75314 9.75625 5.98439 9.53125L7.90314 7.6125Z" fill="url(#paint22_radial_11_2758)"/>
<path id="Vector_24" d="M7.90314 7.6125L9.82189 5.69375C10.0469 5.46875 10.0281 5.075 9.75939 4.89375C8.47814 4.01875 6.70314 4.15 5.57189 5.28125C4.44064 6.4125 4.30939 8.19375 5.18439 9.46875C5.36564 9.7375 5.75314 9.75625 5.98439 9.53125L7.90314 7.6125Z" fill="url(#paint23_radial_11_2758)"/>
<path id="Vector_25" d="M7.90314 7.6125L9.82189 5.69375C10.0469 5.46875 10.0281 5.075 9.75939 4.89375C8.47814 4.01875 6.70314 4.15 5.57189 5.28125C4.44064 6.4125 4.30939 8.19375 5.18439 9.46875C5.36564 9.7375 5.75314 9.75625 5.98439 9.53125L7.90314 7.6125Z" fill="url(#paint24_radial_11_2758)"/>
<path id="Vector_26" d="M7.90314 7.6125L9.82189 5.69375C10.0469 5.46875 10.0281 5.075 9.75939 4.89375C8.47814 4.01875 6.70314 4.15 5.57189 5.28125C4.44064 6.4125 4.30939 8.19375 5.18439 9.46875C5.36564 9.7375 5.75314 9.75625 5.98439 9.53125L7.90314 7.6125Z" fill="url(#paint25_linear_11_2758)"/>
<path id="Vector_27" d="M11.5344 9.38126C11.8659 9.38126 12.1838 9.24956 12.4182 9.01514C12.6527 8.78072 12.7844 8.46278 12.7844 8.13126C12.7844 7.79974 12.6527 7.48179 12.4182 7.24737C12.1838 7.01295 11.8659 6.88126 11.5344 6.88126C11.2028 6.88126 10.8849 7.01295 10.6505 7.24737C10.4161 7.48179 10.2844 7.79974 10.2844 8.13126C10.2844 8.46278 10.4161 8.78072 10.6505 9.01514C10.8849 9.24956 11.2028 9.38126 11.5344 9.38126Z" fill="url(#paint26_radial_11_2758)"/>
<path id="Vector_28" d="M11.5344 9.38126C11.8659 9.38126 12.1838 9.24956 12.4182 9.01514C12.6527 8.78072 12.7844 8.46278 12.7844 8.13126C12.7844 7.79974 12.6527 7.48179 12.4182 7.24737C12.1838 7.01295 11.8659 6.88126 11.5344 6.88126C11.2028 6.88126 10.8849 7.01295 10.6505 7.24737C10.4161 7.48179 10.2844 7.79974 10.2844 8.13126C10.2844 8.46278 10.4161 8.78072 10.6505 9.01514C10.8849 9.24956 11.2028 9.38126 11.5344 9.38126Z" fill="url(#paint27_radial_11_2758)"/>
<path id="Vector_29" d="M11.5344 9.38126C11.8659 9.38126 12.1838 9.24956 12.4182 9.01514C12.6527 8.78072 12.7844 8.46278 12.7844 8.13126C12.7844 7.79974 12.6527 7.48179 12.4182 7.24737C12.1838 7.01295 11.8659 6.88126 11.5344 6.88126C11.2028 6.88126 10.8849 7.01295 10.6505 7.24737C10.4161 7.48179 10.2844 7.79974 10.2844 8.13126C10.2844 8.46278 10.4161 8.78072 10.6505 9.01514C10.8849 9.24956 11.2028 9.38126 11.5344 9.38126Z" fill="url(#paint28_radial_11_2758)"/>
<path id="Vector_30" d="M11.5344 9.38126C11.8659 9.38126 12.1838 9.24956 12.4182 9.01514C12.6527 8.78072 12.7844 8.46278 12.7844 8.13126C12.7844 7.79974 12.6527 7.48179 12.4182 7.24737C12.1838 7.01295 11.8659 6.88126 11.5344 6.88126C11.2028 6.88126 10.8849 7.01295 10.6505 7.24737C10.4161 7.48179 10.2844 7.79974 10.2844 8.13126C10.2844 8.46278 10.4161 8.78072 10.6505 9.01514C10.8849 9.24956 11.2028 9.38126 11.5344 9.38126Z" fill="url(#paint29_radial_11_2758)"/>
<path id="Vector_31" d="M11.5344 9.38126C11.8659 9.38126 12.1838 9.24956 12.4182 9.01514C12.6527 8.78072 12.7844 8.46278 12.7844 8.13126C12.7844 7.79974 12.6527 7.48179 12.4182 7.24737C12.1838 7.01295 11.8659 6.88126 11.5344 6.88126C11.2028 6.88126 10.8849 7.01295 10.6505 7.24737C10.4161 7.48179 10.2844 7.79974 10.2844 8.13126C10.2844 8.46278 10.4161 8.78072 10.6505 9.01514C10.8849 9.24956 11.2028 9.38126 11.5344 9.38126Z" fill="url(#paint30_radial_11_2758)"/>
<path id="Vector_32" d="M11.5344 9.38126C11.8659 9.38126 12.1838 9.24956 12.4182 9.01514C12.6527 8.78072 12.7844 8.46278 12.7844 8.13126C12.7844 7.79974 12.6527 7.48179 12.4182 7.24737C12.1838 7.01295 11.8659 6.88126 11.5344 6.88126C11.2028 6.88126 10.8849 7.01295 10.6505 7.24737C10.4161 7.48179 10.2844 7.79974 10.2844 8.13126C10.2844 8.46278 10.4161 8.78072 10.6505 9.01514C10.8849 9.24956 11.2028 9.38126 11.5344 9.38126Z" fill="url(#paint31_radial_11_2758)"/>
<g id="Group_3" filter="url(#filter1_ii_11_2758)">
<path id="Vector_33" d="M19.0563 17.4475C19.0563 17.0863 18.8481 16.9038 18.4406 16.7594C17.9719 16.5931 17.5256 16.2563 16.7881 16.2563C15.7131 16.2563 15.7131 16.8813 14.6381 16.8813C13.5631 16.8813 13.5631 16.2563 12.4819 16.2563C11.4069 16.2563 11.4069 16.8813 10.3256 16.8813C9.25063 16.8813 9.25063 16.2563 8.16938 16.2563C7.09438 16.2563 7.09438 16.8813 6.01938 16.8813C4.94438 16.8813 4.94438 16.2563 3.86313 16.2563C3.00063 16.2563 2.65063 16.65 2.05688 16.8063C1.76313 16.8875 1.55688 17.1563 1.55688 17.4563C1.55688 17.8313 1.85688 18.1313 2.23188 18.1313H18.3569C18.885 18.1313 19.0563 17.7063 19.0563 17.4475Z" fill="url(#paint32_linear_11_2758)"/>
</g>
<g id="Group_4" filter="url(#filter2_f_11_2758)">
<path id="Vector_34" d="M9.77876 5.38751L8.17563 6.89063L6.42938 4.71438C7.83313 4.26251 9.14438 4.78813 9.77876 5.38751Z" fill="url(#paint33_linear_11_2758)"/>
</g>
<g id="Group_5" filter="url(#filter3_f_11_2758)">
<path id="Vector_35" d="M11.8656 8.495C12.1449 8.495 12.3712 8.26862 12.3712 7.98937C12.3712 7.71013 12.1449 7.48375 11.8656 7.48375C11.5864 7.48375 11.36 7.71013 11.36 7.98937C11.36 8.26862 11.5864 8.495 11.8656 8.495Z" fill="url(#paint34_radial_11_2758)"/>
</g>
<g id="Group_6" filter="url(#filter4_f_11_2758)">
<path id="Vector_36" d="M11.5344 4.82C12.1062 4.75125 14.0637 5.1325 14.5656 6.82937" stroke="url(#paint35_radial_11_2758)" stroke-width="0.5" stroke-linecap="round"/>
</g>
<g id="Group_7" filter="url(#filter5_f_11_2758)">
<path id="Vector_37" d="M14.73 3.44157C15.2617 3.8355 15.794 4.01815 15.9189 3.84952C16.0438 3.6809 15.7141 3.22485 15.1825 2.83092C14.6508 2.43699 14.1185 2.25434 13.9936 2.42297C13.8686 2.59159 14.1983 3.04764 14.73 3.44157Z" fill="url(#paint36_radial_11_2758)"/>
</g>
<g id="Group_8" filter="url(#filter6_f_11_2758)">
<path id="Vector_38" d="M7.46567 3.84225C8.03824 4.24077 8.69631 4.28524 8.93549 3.94158C9.17468 3.59792 8.90441 2.99627 8.33184 2.59776C7.75927 2.19925 7.10121 2.15478 6.86202 2.49844C6.62283 2.84209 6.8931 3.44374 7.46567 3.84225Z" fill="url(#paint37_radial_11_2758)"/>
</g>
<path id="Vector_39" d="M9.04691 8.11876C9.21024 8.11876 9.37198 8.08659 9.52287 8.02408C9.67377 7.96158 9.81088 7.86996 9.92638 7.75447C10.0419 7.63898 10.1335 7.50187 10.196 7.35097C10.2585 7.20007 10.2907 7.03834 10.2907 6.87501C10.2907 6.71167 10.2585 6.54994 10.196 6.39904C10.1335 6.24814 10.0419 6.11103 9.92638 5.99554C9.81088 5.88005 9.67377 5.78844 9.52287 5.72593C9.37198 5.66343 9.21024 5.63126 9.04691 5.63126C8.71705 5.63126 8.4007 5.76229 8.16745 5.99554C7.9342 6.22879 7.80316 6.54514 7.80316 6.87501C7.80316 7.20487 7.9342 7.52122 8.16745 7.75447C8.4007 7.98772 8.71705 8.11876 9.04691 8.11876Z" fill="url(#paint38_radial_11_2758)"/>
<path id="Vector_40" d="M9.04691 8.11876C9.21024 8.11876 9.37198 8.08659 9.52287 8.02408C9.67377 7.96158 9.81088 7.86996 9.92638 7.75447C10.0419 7.63898 10.1335 7.50187 10.196 7.35097C10.2585 7.20007 10.2907 7.03834 10.2907 6.87501C10.2907 6.71167 10.2585 6.54994 10.196 6.39904C10.1335 6.24814 10.0419 6.11103 9.92638 5.99554C9.81088 5.88005 9.67377 5.78844 9.52287 5.72593C9.37198 5.66343 9.21024 5.63126 9.04691 5.63126C8.71705 5.63126 8.4007 5.76229 8.16745 5.99554C7.9342 6.22879 7.80316 6.54514 7.80316 6.87501C7.80316 7.20487 7.9342 7.52122 8.16745 7.75447C8.4007 7.98772 8.71705 8.11876 9.04691 8.11876Z" fill="url(#paint39_radial_11_2758)"/>
<path id="Vector_41" d="M9.04691 8.11876C9.21024 8.11876 9.37198 8.08659 9.52287 8.02408C9.67377 7.96158 9.81088 7.86996 9.92638 7.75447C10.0419 7.63898 10.1335 7.50187 10.196 7.35097C10.2585 7.20007 10.2907 7.03834 10.2907 6.87501C10.2907 6.71167 10.2585 6.54994 10.196 6.39904C10.1335 6.24814 10.0419 6.11103 9.92638 5.99554C9.81088 5.88005 9.67377 5.78844 9.52287 5.72593C9.37198 5.66343 9.21024 5.63126 9.04691 5.63126C8.71705 5.63126 8.4007 5.76229 8.16745 5.99554C7.9342 6.22879 7.80316 6.54514 7.80316 6.87501C7.80316 7.20487 7.9342 7.52122 8.16745 7.75447C8.4007 7.98772 8.71705 8.11876 9.04691 8.11876Z" fill="url(#paint40_radial_11_2758)"/>
<path id="Vector_42" d="M9.04691 8.11876C9.21024 8.11876 9.37198 8.08659 9.52287 8.02408C9.67377 7.96158 9.81088 7.86996 9.92638 7.75447C10.0419 7.63898 10.1335 7.50187 10.196 7.35097C10.2585 7.20007 10.2907 7.03834 10.2907 6.87501C10.2907 6.71167 10.2585 6.54994 10.196 6.39904C10.1335 6.24814 10.0419 6.11103 9.92638 5.99554C9.81088 5.88005 9.67377 5.78844 9.52287 5.72593C9.37198 5.66343 9.21024 5.63126 9.04691 5.63126C8.71705 5.63126 8.4007 5.76229 8.16745 5.99554C7.9342 6.22879 7.80316 6.54514 7.80316 6.87501C7.80316 7.20487 7.9342 7.52122 8.16745 7.75447C8.4007 7.98772 8.71705 8.11876 9.04691 8.11876Z" fill="url(#paint41_radial_11_2758)"/>
<g id="Group_9" filter="url(#filter7_f_11_2758)">
<path id="Vector_43" d="M9.76551 6.97951C9.9968 6.85498 10.0735 6.5483 9.9369 6.29453C9.80026 6.04075 9.502 5.93597 9.27071 6.06049C9.03942 6.18502 8.96269 6.49169 9.09933 6.74547C9.23596 6.99925 9.53422 7.10403 9.76551 6.97951Z" fill="url(#paint42_radial_11_2758)"/>
</g>
</g>
</g>
<defs>
<filter id="filter0_i_11_2758" x="2.71875" y="13.3875" width="15.4062" height="4.26876" filterUnits="userSpaceOnUse" color-interpolation-filters="sRGB">
<feFlood flood-opacity="0" result="BackgroundImageFix"/>
<feBlend mode="normal" in="SourceGraphic" in2="BackgroundImageFix" result="shape"/>
<feColorMatrix in="SourceAlpha" type="matrix" values="0 0 0 0 0 0 0 0 0 0 0 0 0 0 0 0 0 0 127 0" result="hardAlpha"/>
<feOffset dx="0.15" dy="0.15"/>
<feGaussianBlur stdDeviation="0.25"/>
<feComposite in2="hardAlpha" operator="arithmetic" k2="-1" k3="1"/>
<feColorMatrix type="matrix" values="0 0 0 0 0.858824 0 0 0 0 0.611765 0 0 0 0 0.545098 0 0 0 1 0"/>
<feBlend mode="normal" in2="shape" result="effect1_innerShadow_11_2758"/>
</filter>
<filter id="filter1_ii_11_2758" x="1.05688" y="16.0063" width="18.2494" height="2.125" filterUnits="userSpaceOnUse" color-interpolation-filters="sRGB">
<feFlood flood-opacity="0" result="BackgroundImageFix"/>
<feBlend mode="normal" in="SourceGraphic" in2="BackgroundImageFix" result="shape"/>
<feColorMatrix in="SourceAlpha" type="matrix" values="0 0 0 0 0 0 0 0 0 0 0 0 0 0 0 0 0 0 127 0" result="hardAlpha"/>
<feOffset dx="-0.5"/>
<feGaussianBlur stdDeviation="0.375"/>
<feComposite in2="hardAlpha" operator="arithmetic" k2="-1" k3="1"/>
<feColorMatrix type="matrix" values="0 0 0 0 0.572549 0 0 0 0 0.952941 0 0 0 0 1 0 0 0 1 0"/>
<feBlend mode="normal" in2="shape" result="effect1_innerShadow_11_2758"/>
<feColorMatrix in="SourceAlpha" type="matrix" values="0 0 0 0 0 0 0 0 0 0 0 0 0 0 0 0 0 0 127 0" result="hardAlpha"/>
<feOffset dx="0.25" dy="-0.25"/>
<feGaussianBlur stdDeviation="0.375"/>
<feComposite in2="hardAlpha" operator="arithmetic" k2="-1" k3="1"/>
<feColorMatrix type="matrix" values="0 0 0 0 0.341176 0 0 0 0 0.411765 0 0 0 0 0.952941 0 0 0 1 0"/>
<feBlend mode="normal" in2="effect1_innerShadow_11_2758" result="effect2_innerShadow_11_2758"/>
</filter>
<filter id="filter2_f_11_2758" x="5.92938" y="4.04425" width="4.34937" height="3.34637" filterUnits="userSpaceOnUse" color-interpolation-filters="sRGB">
<feFlood flood-opacity="0" result="BackgroundImageFix"/>
<feBlend mode="normal" in="SourceGraphic" in2="BackgroundImageFix" result="shape"/>
<feGaussianBlur stdDeviation="0.25" result="effect1_foregroundBlur_11_2758"/>
</filter>
<filter id="filter3_f_11_2758" x="10.36" y="6.48375" width="3.01123" height="3.01125" filterUnits="userSpaceOnUse" color-interpolation-filters="sRGB">
<feFlood flood-opacity="0" result="BackgroundImageFix"/>
<feBlend mode="normal" in="SourceGraphic" in2="BackgroundImageFix" result="shape"/>
<feGaussianBlur stdDeviation="0.5" result="effect1_foregroundBlur_11_2758"/>
</filter>
<filter id="filter4_f_11_2758" x="10.7844" y="4.06253" width="4.53131" height="3.51691" filterUnits="userSpaceOnUse" color-interpolation-filters="sRGB">
<feFlood flood-opacity="0" result="BackgroundImageFix"/>
<feBlend mode="normal" in="SourceGraphic" in2="BackgroundImageFix" result="shape"/>
<feGaussianBlur stdDeviation="0.25" result="effect1_foregroundBlur_11_2758"/>
</filter>
<filter id="filter5_f_11_2758" x="13.2171" y="1.61017" width="3.47827" height="3.05215" filterUnits="userSpaceOnUse" color-interpolation-filters="sRGB">
<feFlood flood-opacity="0" result="BackgroundImageFix"/>
<feBlend mode="normal" in="SourceGraphic" in2="BackgroundImageFix" result="shape"/>
<feGaussianBlur stdDeviation="0.375" result="effect1_foregroundBlur_11_2758"/>
</filter>
<filter id="filter6_f_11_2758" x="6.0249" y="1.51718" width="3.74768" height="3.40565" filterUnits="userSpaceOnUse" color-interpolation-filters="sRGB">
<feFlood flood-opacity="0" result="BackgroundImageFix"/>
<feBlend mode="normal" in="SourceGraphic" in2="BackgroundImageFix" result="shape"/>
<feGaussianBlur stdDeviation="0.375" result="effect1_foregroundBlur_11_2758"/>
</filter>
<filter id="filter7_f_11_2758" x="8.03162" y="5.00804" width="2.97296" height="3.02393" filterUnits="userSpaceOnUse" color-interpolation-filters="sRGB">
<feFlood flood-opacity="0" result="BackgroundImageFix"/>
<feBlend mode="normal" in="SourceGraphic" in2="BackgroundImageFix" result="shape"/>
<feGaussianBlur stdDeviation="0.5" result="effect1_foregroundBlur_11_2758"/>
</filter>
<linearGradient id="paint0_linear_11_2758" x1="8.74751" y1="10.8863" x2="11.8656" y2="10.8863" gradientUnits="userSpaceOnUse">
<stop stop-color="#56322E"/>
<stop offset="0.476" stop-color="#7E4D54"/>
<stop offset="1" stop-color="#906C65"/>
</linearGradient>
<linearGradient id="paint1_linear_11_2758" x1="11.1225" y1="6.32876" x2="11.005" y2="9.66313" gradientUnits="userSpaceOnUse">
<stop stop-color="#734951"/>
<stop offset="1" stop-color="#734951" stop-opacity="0"/>
</linearGradient>
<radialGradient id="paint2_radial_11_2758" cx="0" cy="0" r="1" gradientUnits="userSpaceOnUse" gradientTransform="translate(10.505 5.77626) rotate(61.6891) scale(2.7132 0.787652)">
<stop stop-color="#4B2231"/>
<stop offset="1" stop-color="#4B2231" stop-opacity="0"/>
</radialGradient>
<radialGradient id="paint3_radial_11_2758" cx="0" cy="0" r="1" gradientUnits="userSpaceOnUse" gradientTransform="translate(10.3063 5.68813) rotate(134.891) scale(2.93662 0.590258)">
<stop stop-color="#4B2231"/>
<stop offset="1" stop-color="#4B2231" stop-opacity="0"/>
</radialGradient>
<radialGradient id="paint4_radial_11_2758" cx="0" cy="0" r="1" gradientUnits="userSpaceOnUse" gradientTransform="translate(10.505 7.52626) rotate(118.377) scale(2.18944 1.56781)">
<stop stop-color="#422026"/>
<stop offset="1" stop-color="#422026" stop-opacity="0"/>
</radialGradient>
<radialGradient id="paint5_radial_11_2758" cx="0" cy="0" r="1" gradientUnits="userSpaceOnUse" gradientTransform="translate(10.6031 13.5606) rotate(-90) scale(1.05469 3.4375)">
<stop stop-color="#733629"/>
<stop offset="1" stop-color="#733629" stop-opacity="0"/>
</radialGradient>
<radialGradient id="paint6_radial_11_2758" cx="0" cy="0" r="1" gradientUnits="userSpaceOnUse" gradientTransform="translate(10.6619 8.97126) rotate(90) scale(2.08984 1.09375)">
<stop stop-color="#63353B"/>
<stop offset="1" stop-color="#63353B" stop-opacity="0"/>
</radialGradient>
<radialGradient id="paint7_radial_11_2758" cx="0" cy="0" r="1" gradientUnits="userSpaceOnUse" gradientTransform="translate(7.775 3.11875) rotate(91.3983) scale(2.92638 6.7515)">
<stop stop-color="#9ED141"/>
<stop offset="1" stop-color="#799D4B"/>
</radialGradient>
<radialGradient id="paint8_radial_11_2758" cx="0" cy="0" r="1" gradientUnits="userSpaceOnUse" gradientTransform="translate(7.06375 3.8325) rotate(90) scale(1.48009 3.85893)">
<stop stop-color="#9AC644"/>
<stop offset="1" stop-color="#9AC644" stop-opacity="0"/>
</radialGradient>
<linearGradient id="paint9_linear_11_2758" x1="9.85313" y1="5.49125" x2="9.04375" y2="4.16063" gradientUnits="userSpaceOnUse">
<stop stop-color="#5D9501"/>
<stop offset="1" stop-color="#5D9501" stop-opacity="0"/>
</linearGradient>
<linearGradient id="paint10_linear_11_2758" x1="5.80625" y1="5.56" x2="5.80625" y2="4.96125" gradientUnits="userSpaceOnUse">
<stop stop-color="#9C99A6"/>
<stop offset="1" stop-color="#9C99A6" stop-opacity="0"/>
</linearGradient>
<radialGradient id="paint11_radial_11_2758" cx="0" cy="0" r="1" gradientUnits="userSpaceOnUse" gradientTransform="translate(6.11875 5.3125) rotate(160.981) scale(2.29988 0.923996)">
<stop stop-color="#66981B"/>
<stop offset="1" stop-color="#66981B" stop-opacity="0"/>
</radialGradient>
<radialGradient id="paint12_radial_11_2758" cx="0" cy="0" r="1" gradientUnits="userSpaceOnUse" gradientTransform="translate(7.78563 4.6975) rotate(176.376) scale(4.99794 4.14138)">
<stop offset="0.747" stop-color="#82AB5A" stop-opacity="0"/>
<stop offset="0.984" stop-color="#82AB5A"/>
</radialGradient>
<radialGradient id="paint13_radial_11_2758" cx="0" cy="0" r="1" gradientUnits="userSpaceOnUse" gradientTransform="translate(15.1731 16.2169) rotate(180) scale(7.85156 6.67781)">
<stop stop-color="#FFC351"/>
<stop offset="1" stop-color="#F07B4C"/>
</radialGradient>
<radialGradient id="paint14_radial_11_2758" cx="0" cy="0" r="1" gradientUnits="userSpaceOnUse" gradientTransform="translate(15.9731 4.11438) rotate(180) scale(8.097 8.52194)">
<stop stop-color="#A3D350"/>
<stop offset="1" stop-color="#679E15"/>
</radialGradient>
<radialGradient id="paint15_radial_11_2758" cx="0" cy="0" r="1" gradientUnits="userSpaceOnUse" gradientTransform="translate(15.5813 3.69063) rotate(180) scale(4.61993 2.61119)">
<stop stop-color="#A3CF56"/>
<stop offset="1" stop-color="#A3CF56" stop-opacity="0"/>
</radialGradient>
<linearGradient id="paint16_linear_11_2758" x1="14.8888" y1="5.78125" x2="14.8888" y2="4.98063" gradientUnits="userSpaceOnUse">
<stop stop-color="#95A096"/>
<stop offset="1" stop-color="#95A096" stop-opacity="0"/>
</linearGradient>
<radialGradient id="paint17_radial_11_2758" cx="0" cy="0" r="1" gradientUnits="userSpaceOnUse" gradientTransform="translate(13.6459 5.88569) rotate(136.119) scale(2.26969 3.94314)">
<stop stop-color="#74A550"/>
<stop offset="1" stop-color="#517D2A"/>
</radialGradient>
<radialGradient id="paint18_radial_11_2758" cx="0" cy="0" r="1" gradientUnits="userSpaceOnUse" gradientTransform="translate(12.2575 8.39875) rotate(-47.7616) scale(1.12501 4.63106)">
<stop stop-color="#576043"/>
<stop offset="1" stop-color="#576043" stop-opacity="0"/>
</radialGradient>
<radialGradient id="paint19_radial_11_2758" cx="0" cy="0" r="1" gradientUnits="userSpaceOnUse" gradientTransform="translate(8.70812 4.86687) rotate(30.391) scale(7.50025 6.94225)">
<stop offset="0.757" stop-color="#6C9543" stop-opacity="0"/>
<stop offset="1" stop-color="#6C9543"/>
</radialGradient>
<radialGradient id="paint20_radial_11_2758" cx="0" cy="0" r="1" gradientUnits="userSpaceOnUse" gradientTransform="translate(11.7406 7.32687) rotate(-103.229) scale(1.3151 0.66594)">
<stop stop-color="#3E6A0C"/>
<stop offset="1" stop-color="#3E6A0C" stop-opacity="0"/>
</radialGradient>
<linearGradient id="paint21_linear_11_2758" x1="11.84" y1="7.74812" x2="12.2694" y2="7.31812" gradientUnits="userSpaceOnUse">
<stop stop-color="#394B28"/>
<stop offset="1" stop-color="#394B28" stop-opacity="0"/>
</linearGradient>
<radialGradient id="paint22_radial_11_2758" cx="0" cy="0" r="1" gradientUnits="userSpaceOnUse" gradientTransform="translate(8.53314 6.44063) rotate(118.593) scale(4.39565 3.9918)">
<stop stop-color="#65943F"/>
<stop offset="1" stop-color="#4C712C"/>
</radialGradient>
<radialGradient id="paint23_radial_11_2758" cx="0" cy="0" r="1" gradientUnits="userSpaceOnUse" gradientTransform="translate(7.66289 7.00457) rotate(134.648) scale(2.46916 0.743987)">
<stop stop-color="#69785C"/>
<stop offset="1" stop-color="#69785C" stop-opacity="0"/>
</radialGradient>
<radialGradient id="paint24_radial_11_2758" cx="0" cy="0" r="1" gradientUnits="userSpaceOnUse" gradientTransform="translate(8.23376 6.9125) rotate(133.788) scale(1.35683 1.28376)">
<stop stop-color="#4E5E45"/>
<stop offset="1" stop-color="#4E5E45" stop-opacity="0"/>
</radialGradient>
<linearGradient id="paint25_linear_11_2758" x1="7.43814" y1="7.84688" x2="7.25939" y2="7.68375" gradientUnits="userSpaceOnUse">
<stop stop-color="#617247"/>
<stop offset="1" stop-color="#617247" stop-opacity="0"/>
</linearGradient>
<radialGradient id="paint26_radial_11_2758" cx="0" cy="0" r="1" gradientUnits="userSpaceOnUse" gradientTransform="translate(11.8619 8.13126) rotate(130.622) scale(1.84493 2.32812)">
<stop stop-color="#B97056"/>
<stop offset="1" stop-color="#82582F"/>
</radialGradient>
<radialGradient id="paint27_radial_11_2758" cx="0" cy="0" r="1" gradientUnits="userSpaceOnUse" gradientTransform="translate(11.2956 9.38126) rotate(-83.4151) scale(1.36254 1.49594)">
<stop stop-color="#B5547D"/>
<stop offset="1" stop-color="#B5547D" stop-opacity="0"/>
</radialGradient>
<radialGradient id="paint28_radial_11_2758" cx="0" cy="0" r="1" gradientUnits="userSpaceOnUse" gradientTransform="translate(12.1788 9.31169) rotate(-125.655) scale(0.276431 0.892244)">
<stop stop-color="#AD619B"/>
<stop offset="1" stop-color="#AD619B" stop-opacity="0"/>
</radialGradient>
<radialGradient id="paint29_radial_11_2758" cx="0" cy="0" r="1" gradientUnits="userSpaceOnUse" gradientTransform="translate(10.3087 8.92626) rotate(-32.9052) scale(0.395478 0.65229)">
<stop stop-color="#AD619B"/>
<stop offset="1" stop-color="#AD619B" stop-opacity="0"/>
</radialGradient>
<radialGradient id="paint30_radial_11_2758" cx="0" cy="0" r="1" gradientUnits="userSpaceOnUse" gradientTransform="translate(10.4431 9.00313) rotate(-33.947) scale(2.8223 2.50681)">
<stop offset="0.817" stop-color="#AC794F" stop-opacity="0"/>
<stop offset="1" stop-color="#AC794F"/>
</radialGradient>
<radialGradient id="paint31_radial_11_2758" cx="0" cy="0" r="1" gradientUnits="userSpaceOnUse" gradientTransform="translate(10.2844 7.55501) rotate(90) scale(0.994944 0.336969)">
<stop stop-color="#893E2F"/>
<stop offset="1" stop-color="#893E2F" stop-opacity="0"/>
</radialGradient>
<linearGradient id="paint32_linear_11_2758" x1="2.24376" y1="18.1313" x2="18.7669" y2="18.1313" gradientUnits="userSpaceOnUse">
<stop stop-color="#5884FF"/>
<stop offset="1" stop-color="#6DD5FF"/>
</linearGradient>
<linearGradient id="paint33_linear_11_2758" x1="9.05313" y1="5.46563" x2="7.05501" y2="5.86563" gradientUnits="userSpaceOnUse">
<stop stop-color="#7C9D5A"/>
<stop offset="1" stop-color="#7C9D5A" stop-opacity="0"/>
</linearGradient>
<radialGradient id="paint34_radial_11_2758" cx="0" cy="0" r="1" gradientUnits="userSpaceOnUse" gradientTransform="translate(12.1092 7.87416) rotate(151.44) scale(1.48178)">
<stop stop-color="#D79F87"/>
<stop offset="1" stop-color="#D79F87" stop-opacity="0"/>
</radialGradient>
<radialGradient id="paint35_radial_11_2758" cx="0" cy="0" r="1" gradientUnits="userSpaceOnUse" gradientTransform="translate(13.6649 5.1315) rotate(132.065) scale(0.956713 2.87516)">
<stop stop-color="#80B35C"/>
<stop offset="1" stop-color="#80B35C" stop-opacity="0"/>
</radialGradient>
<radialGradient id="paint36_radial_11_2758" cx="0" cy="0" r="1" gradientUnits="userSpaceOnUse" gradientTransform="translate(15.9552 3.73018) rotate(-141.341) scale(2.2183 0.412865)">
<stop stop-color="#C0EF77"/>
<stop offset="1" stop-color="#C0EF77" stop-opacity="0"/>
</radialGradient>
<radialGradient id="paint37_radial_11_2758" cx="0" cy="0" r="1" gradientUnits="userSpaceOnUse" gradientTransform="translate(9.45973 4.07111) rotate(-152.436) scale(3.10204 1.0882)">
<stop stop-color="#B8E172"/>
<stop offset="1" stop-color="#B8E172" stop-opacity="0"/>
</radialGradient>
<radialGradient id="paint38_radial_11_2758" cx="0" cy="0" r="1" gradientUnits="userSpaceOnUse" gradientTransform="translate(9.37254 6.87501) rotate(130.622) scale(1.8357 2.31648)">
<stop stop-color="#AA674F"/>
<stop offset="1" stop-color="#82582F"/>
</radialGradient>
<radialGradient id="paint39_radial_11_2758" cx="0" cy="0" r="1" gradientUnits="userSpaceOnUse" gradientTransform="translate(8.80879 8.11876) rotate(-83.4151) scale(1.35573 1.48846)">
<stop stop-color="#AC4D77"/>
<stop offset="1" stop-color="#AC4D77" stop-opacity="0"/>
</radialGradient>
<radialGradient id="paint40_radial_11_2758" cx="0" cy="0" r="1" gradientUnits="userSpaceOnUse" gradientTransform="translate(8.65379 8.16188) rotate(-72.2546) scale(0.255054 0.585311)">
<stop stop-color="#AD619B"/>
<stop offset="1" stop-color="#AD619B" stop-opacity="0"/>
</radialGradient>
<radialGradient id="paint41_radial_11_2758" cx="0" cy="0" r="1" gradientUnits="userSpaceOnUse" gradientTransform="translate(7.96129 7.74251) rotate(-33.947) scale(2.80819 2.49428)">
<stop offset="0.773" stop-color="#AC794F" stop-opacity="0"/>
<stop offset="1" stop-color="#AC794F"/>
</radialGradient>
<radialGradient id="paint42_radial_11_2758" cx="0" cy="0" r="1" gradientUnits="userSpaceOnUse" gradientTransform="translate(9.66288 6.30593) rotate(120.874) scale(1.426 1.49444)">
<stop stop-color="#D79F87"/>
<stop offset="1" stop-color="#D79F87" stop-opacity="0"/>
</radialGradient>
</defs>
</svg>
