<svg width="20" height="20" viewBox="0 0 20 20" fill="none" xmlns="http://www.w3.org/2000/svg">
<g id="ph:building-duotone">
<g id="Group">
<path id="Vector" opacity="0.2" d="M15.625 1.875V18.125H11.875V14.375H8.125V18.125H4.375V1.875H15.625Z" fill="#989BA2"/>
<path id="Vector_2" d="M18.125 17.5H16.25V2.5H16.875C17.0408 2.5 17.1997 2.43415 17.3169 2.31694C17.4342 2.19973 17.5 2.04076 17.5 1.875C17.5 1.70924 17.4342 1.55027 17.3169 1.43306C17.1997 1.31585 17.0408 1.25 16.875 1.25H3.125C2.95924 1.25 2.80027 1.31585 2.68306 1.43306C2.56585 1.55027 2.5 1.70924 2.5 1.875C2.5 2.04076 2.56585 2.19973 2.68306 2.31694C2.80027 2.43415 2.95924 2.5 3.125 2.5H3.75V17.5H1.875C1.70924 17.5 1.55027 17.5658 1.43306 17.6831C1.31585 17.8003 1.25 17.9592 1.25 18.125C1.25 18.2908 1.31585 18.4497 1.43306 18.5669C1.55027 18.6842 1.70924 18.75 1.875 18.75H18.125C18.2908 18.75 18.4497 18.6842 18.5669 18.5669C18.6842 18.4497 18.75 18.2908 18.75 18.125C18.75 17.9592 18.6842 17.8003 18.5669 17.6831C18.4497 17.5658 18.2908 17.5 18.125 17.5ZM5 2.5H15V17.5H12.5V14.375C12.5 14.2092 12.4342 14.0503 12.3169 13.9331C12.1997 13.8158 12.0408 13.75 11.875 13.75H8.125C7.95924 13.75 7.80027 13.8158 7.68306 13.9331C7.56585 14.0503 7.5 14.2092 7.5 14.375V17.5H5V2.5ZM11.25 17.5H8.75V15H11.25V17.5ZM6.875 5C6.875 4.83424 6.94085 4.67527 7.05806 4.55806C7.17527 4.44085 7.33424 4.375 7.5 4.375H8.75C8.91576 4.375 9.07473 4.44085 9.19194 4.55806C9.30915 4.67527 9.375 4.83424 9.375 5C9.375 5.16576 9.30915 5.32473 9.19194 5.44194C9.07473 5.55915 8.91576 5.625 8.75 5.625H7.5C7.33424 5.625 7.17527 5.55915 7.05806 5.44194C6.94085 5.32473 6.875 5.16576 6.875 5ZM10.625 5C10.625 4.83424 10.6908 4.67527 10.8081 4.55806C10.9253 4.44085 11.0842 4.375 11.25 4.375H12.5C12.6658 4.375 12.8247 4.44085 12.9419 4.55806C13.0592 4.67527 13.125 4.83424 13.125 5C13.125 5.16576 13.0592 5.32473 12.9419 5.44194C12.8247 5.55915 12.6658 5.625 12.5 5.625H11.25C11.0842 5.625 10.9253 5.55915 10.8081 5.44194C10.6908 5.32473 10.625 5.16576 10.625 5ZM6.875 8.125C6.875 7.95924 6.94085 7.80027 7.05806 7.68306C7.17527 7.56585 7.33424 7.5 7.5 7.5H8.75C8.91576 7.5 9.07473 7.56585 9.19194 7.68306C9.30915 7.80027 9.375 7.95924 9.375 8.125C9.375 8.29076 9.30915 8.44973 9.19194 8.56694C9.07473 8.68415 8.91576 8.75 8.75 8.75H7.5C7.33424 8.75 7.17527 8.68415 7.05806 8.56694C6.94085 8.44973 6.875 8.29076 6.875 8.125ZM10.625 8.125C10.625 7.95924 10.6908 7.80027 10.8081 7.68306C10.9253 7.56585 11.0842 7.5 11.25 7.5H12.5C12.6658 7.5 12.8247 7.56585 12.9419 7.68306C13.0592 7.80027 13.125 7.95924 13.125 8.125C13.125 8.29076 13.0592 8.44973 12.9419 8.56694C12.8247 8.68415 12.6658 8.75 12.5 8.75H11.25C11.0842 8.75 10.9253 8.68415 10.8081 8.56694C10.6908 8.44973 10.625 8.29076 10.625 8.125ZM6.875 11.25C6.875 11.0842 6.94085 10.9253 7.05806 10.8081C7.17527 10.6908 7.33424 10.625 7.5 10.625H8.75C8.91576 10.625 9.07473 10.6908 9.19194 10.8081C9.30915 10.9253 9.375 11.0842 9.375 11.25C9.375 11.4158 9.30915 11.5747 9.19194 11.6919C9.07473 11.8092 8.91576 11.875 8.75 11.875H7.5C7.33424 11.875 7.17527 11.8092 7.05806 11.6919C6.94085 11.5747 6.875 11.4158 6.875 11.25ZM10.625 11.25C10.625 11.0842 10.6908 10.9253 10.8081 10.8081C10.9253 10.6908 11.0842 10.625 11.25 10.625H12.5C12.6658 10.625 12.8247 10.6908 12.9419 10.8081C13.0592 10.9253 13.125 11.0842 13.125 11.25C13.125 11.4158 13.0592 11.5747 12.9419 11.6919C12.8247 11.8092 12.6658 11.875 12.5 11.875H11.25C11.0842 11.875 10.9253 11.8092 10.8081 11.6919C10.6908 11.5747 10.625 11.4158 10.625 11.25Z" fill="#989BA2"/>
</g>
</g>
</svg>
