<svg width="20" height="20" viewBox="0 0 20 20" fill="none" xmlns="http://www.w3.org/2000/svg">
<g id="mingcute:movie-fill" clip-path="url(#clip0_11_2819)">
<g id="Group">
<path id="Vector" d="M10 1.66667C14.6025 1.66667 18.3334 5.39751 18.3334 10C18.3344 11.2938 18.0338 12.57 17.4553 13.7273C16.8768 14.8846 16.0364 15.891 15.0009 16.6667H16.6667C16.8877 16.6667 17.0997 16.7545 17.2559 16.9107C17.4122 17.067 17.5 17.279 17.5 17.5C17.5 17.721 17.4122 17.933 17.2559 18.0893C17.0997 18.2455 16.8877 18.3333 16.6667 18.3333H10C5.39752 18.3333 1.66669 14.6025 1.66669 10C1.66669 5.39751 5.39752 1.66667 10 1.66667ZM10 11.6667C9.55799 11.6667 9.13407 11.8423 8.82151 12.1548C8.50895 12.4674 8.33335 12.8913 8.33335 13.3333C8.33335 13.7754 8.50895 14.1993 8.82151 14.5118C9.13407 14.8244 9.55799 15 10 15C10.442 15 10.866 14.8244 11.1785 14.5118C11.4911 14.1993 11.6667 13.7754 11.6667 13.3333C11.6667 12.8913 11.4911 12.4674 11.1785 12.1548C10.866 11.8423 10.442 11.6667 10 11.6667ZM6.66669 8.33334C6.22466 8.33334 5.80074 8.50893 5.48818 8.82149C5.17561 9.13405 5.00002 9.55798 5.00002 10C5.00002 10.442 5.17561 10.866 5.48818 11.1785C5.80074 11.4911 6.22466 11.6667 6.66669 11.6667C7.10871 11.6667 7.53264 11.4911 7.8452 11.1785C8.15776 10.866 8.33335 10.442 8.33335 10C8.33335 9.55798 8.15776 9.13405 7.8452 8.82149C7.53264 8.50893 7.10871 8.33334 6.66669 8.33334ZM13.3334 8.33334C12.8913 8.33334 12.4674 8.50893 12.1548 8.82149C11.8423 9.13405 11.6667 9.55798 11.6667 10C11.6667 10.442 11.8423 10.866 12.1548 11.1785C12.4674 11.4911 12.8913 11.6667 13.3334 11.6667C13.7754 11.6667 14.1993 11.4911 14.5119 11.1785C14.8244 10.866 15 10.442 15 10C15 9.55798 14.8244 9.13405 14.5119 8.82149C14.1993 8.50893 13.7754 8.33334 13.3334 8.33334ZM10 5.00001C9.55799 5.00001 9.13407 5.1756 8.82151 5.48816C8.50895 5.80072 8.33335 6.22464 8.33335 6.66667C8.33335 7.1087 8.50895 7.53262 8.82151 7.84518C9.13407 8.15774 9.55799 8.33334 10 8.33334C10.442 8.33334 10.866 8.15774 11.1785 7.84518C11.4911 7.53262 11.6667 7.1087 11.6667 6.66667C11.6667 6.22464 11.4911 5.80072 11.1785 5.48816C10.866 5.1756 10.442 5.00001 10 5.00001Z" fill="#FF9200"/>
</g>
</g>
<defs>
<clipPath id="clip0_11_2819">
<rect width="20" height="20" fill="white"/>
</clipPath>
</defs>
</svg>
