<svg width="20" height="20" viewBox="0 0 20 20" fill="none" xmlns="http://www.w3.org/2000/svg">
<g id="ph:plant-duotone">
<g id="Group">
<path id="Vector" opacity="0.2" d="M10.8234 11.6766C8.32968 7.51953 11.6547 3.36328 18.7211 3.7789C19.1406 10.8453 14.9805 14.1711 10.8234 11.6766ZM1.27031 6.89531C0.973435 11.943 3.94297 14.3172 6.91172 12.5367C8.69297 9.56797 6.31797 6.59844 1.27031 6.89531Z" fill="#00BF40"/>
<path id="Vector_2" d="M19.3461 3.74141C19.3372 3.58851 19.2724 3.44421 19.1641 3.3359C19.0558 3.2276 18.9115 3.16284 18.7586 3.15391C14.7148 2.91953 11.468 4.14922 10.0726 6.45235C9.15077 7.97422 9.15234 9.82422 10.0602 11.5883C9.54405 12.2023 9.16645 12.9205 8.95312 13.6938L7.68203 12.4219C8.29296 11.1461 8.26953 9.81563 7.6039 8.71172C6.56953 7.01016 4.18906 6.09375 1.23359 6.2711C1.08069 6.28002 0.936386 6.34479 0.828084 6.45309C0.719781 6.56139 0.655018 6.70569 0.646088 6.8586C0.47187 9.81406 1.38515 12.1945 3.08749 13.2258C3.65022 13.5694 4.29693 13.7508 4.95624 13.75C5.59522 13.7421 6.22425 13.5907 6.79687 13.307L8.74999 15.2602V17.5C8.74999 17.6658 8.81584 17.8247 8.93305 17.9419C9.05026 18.0592 9.20923 18.125 9.37499 18.125C9.54076 18.125 9.69973 18.0592 9.81694 17.9419C9.93415 17.8247 9.99999 17.6658 9.99999 17.5V15.1961C9.99715 14.2018 10.3355 13.2366 10.9586 12.4617C11.7624 12.8819 12.654 13.1067 13.5609 13.118C14.4378 13.1208 15.2984 12.8813 16.0477 12.4258C18.3508 11.032 19.5836 7.78516 19.3461 3.74141ZM6.72343 11.4641L4.8164 9.55781C4.69824 9.44555 4.54089 9.38389 4.37792 9.38598C4.21494 9.38806 4.05923 9.45373 3.94398 9.56898C3.82873 9.68423 3.76306 9.83995 3.76097 10.0029C3.75888 10.1659 3.82054 10.3232 3.93281 10.4414L5.83984 12.3484C5.08906 12.5969 4.36093 12.5352 3.73515 12.1563C2.53671 11.4305 1.85859 9.7125 1.87499 7.5C4.08671 7.48047 5.80546 8.16172 6.53124 9.36016C6.91015 9.98594 6.97187 10.7141 6.72343 11.4641ZM15.4 11.3578C14.3531 11.9914 13.1227 12.0398 11.8727 11.5141L16.0672 7.31875C16.1845 7.20158 16.2504 7.04262 16.2505 6.87684C16.2505 6.71106 16.1847 6.55204 16.0676 6.43477C15.9504 6.31749 15.7914 6.25157 15.6257 6.25149C15.4599 6.25142 15.3009 6.3172 15.1836 6.43438L10.9883 10.625C10.4602 9.375 10.5078 8.14375 11.1445 7.09766C12.2336 5.30078 14.8164 4.30078 18.1234 4.37656C18.1984 7.68281 17.1984 10.2688 15.4 11.3578Z" fill="#00BF40"/>
</g>
</g>
</svg>
